<mxfile host="Electron" agent="Mozilla/5.0 (Windows NT 10.0; Win64; x64) AppleWebKit/537.36 (KHTML, like Gecko) draw.io/24.7.5 Chrome/126.0.6478.183 Electron/31.3.0 Safari/537.36" version="24.7.5">
  <diagram name="Page-1" id="nzHkagQQSFCx0A0-8uom">
    <mxGraphModel dx="3197" dy="1058" grid="1" gridSize="10" guides="1" tooltips="1" connect="1" arrows="1" fold="1" page="1" pageScale="1" pageWidth="850" pageHeight="1100" math="0" shadow="0">
      <root>
        <mxCell id="0" />
        <mxCell id="1" parent="0" />
        <mxCell id="NUFsKL0PFLLsc1Rbk0hu-1" value="&lt;span style=&quot;line-height: 107%;&quot;&gt;&lt;font style=&quot;font-size: 18px;&quot;&gt;Employee&amp;nbsp;&lt;/font&gt;&lt;/span&gt;" style="whiteSpace=wrap;html=1;align=center;strokeColor=default;verticalAlign=middle;fontFamily=Helvetica;fontSize=22;fontColor=default;fillColor=default;" parent="1" vertex="1">
          <mxGeometry x="-125" y="340" width="158" height="66" as="geometry" />
        </mxCell>
        <mxCell id="NUFsKL0PFLLsc1Rbk0hu-2" value="Gender" style="ellipse;whiteSpace=wrap;html=1;align=center;strokeColor=default;verticalAlign=middle;fontFamily=Helvetica;fontSize=18;fontColor=default;fontStyle=0;fillColor=default;" parent="1" vertex="1">
          <mxGeometry x="-247.5" y="10" width="98" height="40" as="geometry" />
        </mxCell>
        <mxCell id="NUFsKL0PFLLsc1Rbk0hu-3" value="Name" style="ellipse;whiteSpace=wrap;html=1;align=center;strokeColor=default;verticalAlign=middle;fontFamily=Helvetica;fontSize=18;fontColor=default;fontStyle=0;fillColor=default;" parent="1" vertex="1">
          <mxGeometry x="7" y="60" width="98" height="40" as="geometry" />
        </mxCell>
        <mxCell id="NUFsKL0PFLLsc1Rbk0hu-4" value="" style="endArrow=none;html=1;rounded=0;entryX=0.25;entryY=0;entryDx=0;entryDy=0;exitX=0.5;exitY=1;exitDx=0;exitDy=0;" parent="1" source="NUFsKL0PFLLsc1Rbk0hu-35" target="NUFsKL0PFLLsc1Rbk0hu-1" edge="1">
          <mxGeometry relative="1" as="geometry">
            <mxPoint x="-73" y="110" as="sourcePoint" />
            <mxPoint x="-33" y="140" as="targetPoint" />
            <Array as="points" />
          </mxGeometry>
        </mxCell>
        <mxCell id="NUFsKL0PFLLsc1Rbk0hu-5" value="" style="endArrow=none;html=1;rounded=0;entryX=0;entryY=0;entryDx=0;entryDy=0;exitX=1;exitY=1;exitDx=0;exitDy=0;" parent="1" source="NUFsKL0PFLLsc1Rbk0hu-2" target="NUFsKL0PFLLsc1Rbk0hu-1" edge="1">
          <mxGeometry relative="1" as="geometry">
            <mxPoint x="-96" y="140" as="sourcePoint" />
            <mxPoint x="-46" y="140" as="targetPoint" />
            <Array as="points" />
          </mxGeometry>
        </mxCell>
        <mxCell id="NUFsKL0PFLLsc1Rbk0hu-6" value="" style="endArrow=none;html=1;rounded=0;exitX=0.44;exitY=0.96;exitDx=0;exitDy=0;exitPerimeter=0;entryX=0.5;entryY=0;entryDx=0;entryDy=0;" parent="1" source="NUFsKL0PFLLsc1Rbk0hu-3" target="NUFsKL0PFLLsc1Rbk0hu-1" edge="1">
          <mxGeometry relative="1" as="geometry">
            <mxPoint x="-63" y="240" as="sourcePoint" />
            <mxPoint x="6" y="157" as="targetPoint" />
            <Array as="points" />
          </mxGeometry>
        </mxCell>
        <mxCell id="NUFsKL0PFLLsc1Rbk0hu-7" value="" style="endArrow=none;html=1;rounded=0;" parent="1" edge="1">
          <mxGeometry relative="1" as="geometry">
            <mxPoint x="47" y="60" as="sourcePoint" />
            <mxPoint x="37" y="40" as="targetPoint" />
            <Array as="points" />
          </mxGeometry>
        </mxCell>
        <mxCell id="NUFsKL0PFLLsc1Rbk0hu-8" value="" style="endArrow=none;html=1;rounded=0;entryX=0.276;entryY=0.9;entryDx=0;entryDy=0;entryPerimeter=0;" parent="1" target="NUFsKL0PFLLsc1Rbk0hu-9" edge="1">
          <mxGeometry relative="1" as="geometry">
            <mxPoint x="67" y="60" as="sourcePoint" />
            <mxPoint x="87" y="40" as="targetPoint" />
            <Array as="points" />
          </mxGeometry>
        </mxCell>
        <mxCell id="NUFsKL0PFLLsc1Rbk0hu-9" value="L_Name" style="ellipse;whiteSpace=wrap;html=1;align=center;strokeColor=default;verticalAlign=middle;fontFamily=Helvetica;fontSize=18;fontColor=default;fontStyle=0;fillColor=default;" parent="1" vertex="1">
          <mxGeometry x="67" width="98" height="40" as="geometry" />
        </mxCell>
        <mxCell id="NUFsKL0PFLLsc1Rbk0hu-10" value="F_Name" style="ellipse;whiteSpace=wrap;html=1;align=center;strokeColor=default;verticalAlign=middle;fontFamily=Helvetica;fontSize=18;fontColor=default;fontStyle=0;fillColor=default;" parent="1" vertex="1">
          <mxGeometry x="-33" width="98" height="40" as="geometry" />
        </mxCell>
        <mxCell id="NUFsKL0PFLLsc1Rbk0hu-11" value="Department" style="ellipse;whiteSpace=wrap;html=1;align=center;strokeColor=default;verticalAlign=middle;fontFamily=Helvetica;fontSize=18;fontColor=default;fontStyle=0;fillColor=default;" parent="1" vertex="1">
          <mxGeometry x="-381" y="378" width="148" height="40" as="geometry" />
        </mxCell>
        <mxCell id="NUFsKL0PFLLsc1Rbk0hu-12" value="" style="endArrow=none;html=1;rounded=0;entryX=1;entryY=0;entryDx=0;entryDy=0;exitX=0;exitY=0.5;exitDx=0;exitDy=0;" parent="1" source="NUFsKL0PFLLsc1Rbk0hu-1" target="NUFsKL0PFLLsc1Rbk0hu-11" edge="1">
          <mxGeometry relative="1" as="geometry">
            <mxPoint x="-124.5" y="416" as="sourcePoint" />
            <mxPoint x="-166.5" y="391" as="targetPoint" />
            <Array as="points" />
          </mxGeometry>
        </mxCell>
        <mxCell id="NUFsKL0PFLLsc1Rbk0hu-14" value="" style="endArrow=none;html=1;rounded=0;entryX=0.38;entryY=0.877;entryDx=0;entryDy=0;exitX=1;exitY=0;exitDx=0;exitDy=0;entryPerimeter=0;" parent="1" source="sx932JaqrDD8Sjgy2ovx-2" target="sx932JaqrDD8Sjgy2ovx-4" edge="1">
          <mxGeometry relative="1" as="geometry">
            <mxPoint x="432" y="492" as="sourcePoint" />
            <mxPoint x="525.192" y="459.15999999999985" as="targetPoint" />
            <Array as="points" />
          </mxGeometry>
        </mxCell>
        <mxCell id="NUFsKL0PFLLsc1Rbk0hu-15" value="Education" style="ellipse;whiteSpace=wrap;html=1;align=center;strokeColor=default;verticalAlign=middle;fontFamily=Helvetica;fontSize=18;fontColor=default;fontStyle=0;fillColor=default;" parent="1" vertex="1">
          <mxGeometry x="529" y="492" width="100" height="40" as="geometry" />
        </mxCell>
        <mxCell id="NUFsKL0PFLLsc1Rbk0hu-16" value="" style="endArrow=none;html=1;rounded=0;entryX=1;entryY=0.75;entryDx=0;entryDy=0;" parent="1" target="sx932JaqrDD8Sjgy2ovx-2" edge="1">
          <mxGeometry relative="1" as="geometry">
            <mxPoint x="529" y="511" as="sourcePoint" />
            <mxPoint x="457" y="512" as="targetPoint" />
            <Array as="points" />
          </mxGeometry>
        </mxCell>
        <mxCell id="NUFsKL0PFLLsc1Rbk0hu-35" value="ID" style="ellipse;whiteSpace=wrap;html=1;align=center;fontStyle=4;strokeColor=default;verticalAlign=middle;fontFamily=Helvetica;fontSize=18;fontColor=default;fillColor=default;" parent="1" vertex="1">
          <mxGeometry x="-141" y="10" width="98" height="40" as="geometry" />
        </mxCell>
        <mxCell id="vKgDMpSiNGCdPXtvVYjp-1" value="Age" style="ellipse;whiteSpace=wrap;html=1;align=center;strokeColor=default;verticalAlign=middle;fontFamily=Helvetica;fontSize=18;fontColor=default;fontStyle=0;fillColor=default;" parent="1" vertex="1">
          <mxGeometry x="-309" y="50" width="98" height="40" as="geometry" />
        </mxCell>
        <mxCell id="vKgDMpSiNGCdPXtvVYjp-2" value="" style="endArrow=none;html=1;rounded=0;entryX=0;entryY=0.25;entryDx=0;entryDy=0;exitX=1;exitY=1;exitDx=0;exitDy=0;" parent="1" source="vKgDMpSiNGCdPXtvVYjp-1" target="NUFsKL0PFLLsc1Rbk0hu-1" edge="1">
          <mxGeometry relative="1" as="geometry">
            <mxPoint x="-86" y="150" as="sourcePoint" />
            <mxPoint x="-33" y="170" as="targetPoint" />
            <Array as="points" />
          </mxGeometry>
        </mxCell>
        <mxCell id="vKgDMpSiNGCdPXtvVYjp-4" value="" style="endArrow=none;html=1;rounded=0;entryX=0.75;entryY=0;entryDx=0;entryDy=0;exitX=0;exitY=1;exitDx=0;exitDy=0;" parent="1" source="vKgDMpSiNGCdPXtvVYjp-8" target="NUFsKL0PFLLsc1Rbk0hu-1" edge="1">
          <mxGeometry relative="1" as="geometry">
            <mxPoint x="133.55828110592142" y="104.22592736929323" as="sourcePoint" />
            <mxPoint x="16" y="204" as="targetPoint" />
            <Array as="points" />
          </mxGeometry>
        </mxCell>
        <mxCell id="vKgDMpSiNGCdPXtvVYjp-6" value="BusinessTravel" style="ellipse;whiteSpace=wrap;html=1;align=center;strokeColor=default;verticalAlign=middle;fontFamily=Helvetica;fontSize=18;fontColor=default;fontStyle=0;fillColor=default;" parent="1" vertex="1">
          <mxGeometry x="-408" y="430" width="165" height="34" as="geometry" />
        </mxCell>
        <mxCell id="vKgDMpSiNGCdPXtvVYjp-7" value="" style="endArrow=none;html=1;rounded=0;entryX=1;entryY=0;entryDx=0;entryDy=0;exitX=0;exitY=1;exitDx=0;exitDy=0;" parent="1" source="NUFsKL0PFLLsc1Rbk0hu-1" target="vKgDMpSiNGCdPXtvVYjp-6" edge="1">
          <mxGeometry relative="1" as="geometry">
            <mxPoint x="-124.5" y="436" as="sourcePoint" />
            <mxPoint x="-173.5" y="412" as="targetPoint" />
            <Array as="points" />
          </mxGeometry>
        </mxCell>
        <mxCell id="vKgDMpSiNGCdPXtvVYjp-8" value="Attrition" style="ellipse;whiteSpace=wrap;html=1;align=center;strokeColor=default;verticalAlign=middle;fontFamily=Helvetica;fontSize=18;fontColor=default;fontStyle=0;fillColor=default;" parent="1" vertex="1">
          <mxGeometry x="130" y="40" width="148" height="40" as="geometry" />
        </mxCell>
        <mxCell id="vKgDMpSiNGCdPXtvVYjp-12" value="OverTime" style="ellipse;whiteSpace=wrap;html=1;align=center;strokeColor=default;verticalAlign=middle;fontFamily=Helvetica;fontSize=18;fontColor=default;fontStyle=0;fillColor=default;" parent="1" vertex="1">
          <mxGeometry x="155" y="94" width="98" height="40" as="geometry" />
        </mxCell>
        <mxCell id="vKgDMpSiNGCdPXtvVYjp-14" value="" style="endArrow=none;html=1;rounded=0;exitX=0;exitY=0.5;exitDx=0;exitDy=0;" parent="1" source="vKgDMpSiNGCdPXtvVYjp-12" edge="1">
          <mxGeometry relative="1" as="geometry">
            <mxPoint x="151" y="94" as="sourcePoint" />
            <mxPoint y="340" as="targetPoint" />
            <Array as="points" />
          </mxGeometry>
        </mxCell>
        <mxCell id="vKgDMpSiNGCdPXtvVYjp-15" value="Job Role" style="ellipse;whiteSpace=wrap;html=1;align=center;strokeColor=default;verticalAlign=middle;fontFamily=Helvetica;fontSize=18;fontColor=default;fontStyle=0;fillColor=default;" parent="1" vertex="1">
          <mxGeometry x="144" y="144" width="120" height="40" as="geometry" />
        </mxCell>
        <mxCell id="vKgDMpSiNGCdPXtvVYjp-16" value="" style="endArrow=none;html=1;rounded=0;entryX=0.877;entryY=-0.015;entryDx=0;entryDy=0;exitX=0;exitY=1;exitDx=0;exitDy=0;entryPerimeter=0;" parent="1" source="vKgDMpSiNGCdPXtvVYjp-15" target="NUFsKL0PFLLsc1Rbk0hu-1" edge="1">
          <mxGeometry relative="1" as="geometry">
            <mxPoint x="143.55828110592142" y="114.22592736929323" as="sourcePoint" />
            <mxPoint x="33" y="194" as="targetPoint" />
            <Array as="points" />
          </mxGeometry>
        </mxCell>
        <mxCell id="vKgDMpSiNGCdPXtvVYjp-18" value="" style="endArrow=none;html=1;rounded=0;entryX=1;entryY=0;entryDx=0;entryDy=0;exitX=0;exitY=1;exitDx=0;exitDy=0;" parent="1" source="vKgDMpSiNGCdPXtvVYjp-19" target="NUFsKL0PFLLsc1Rbk0hu-1" edge="1">
          <mxGeometry relative="1" as="geometry">
            <mxPoint x="153.55828110592142" y="124.22592736929323" as="sourcePoint" />
            <mxPoint x="57" y="271" as="targetPoint" />
            <Array as="points" />
          </mxGeometry>
        </mxCell>
        <mxCell id="vKgDMpSiNGCdPXtvVYjp-19" value="Hire_date" style="ellipse;whiteSpace=wrap;html=1;align=center;strokeColor=default;verticalAlign=middle;fontFamily=Helvetica;fontSize=18;fontColor=default;fontStyle=0;fillColor=default;" parent="1" vertex="1">
          <mxGeometry x="147" y="194" width="120" height="40" as="geometry" />
        </mxCell>
        <mxCell id="vKgDMpSiNGCdPXtvVYjp-20" value="" style="endArrow=none;html=1;rounded=0;entryX=1;entryY=0.25;entryDx=0;entryDy=0;exitX=0;exitY=1;exitDx=0;exitDy=0;" parent="1" source="vKgDMpSiNGCdPXtvVYjp-21" target="NUFsKL0PFLLsc1Rbk0hu-1" edge="1">
          <mxGeometry relative="1" as="geometry">
            <mxPoint x="165.55828110592142" y="192.47592736929323" as="sourcePoint" />
            <mxPoint x="42" y="285.7499999999998" as="targetPoint" />
            <Array as="points" />
          </mxGeometry>
        </mxCell>
        <mxCell id="vKgDMpSiNGCdPXtvVYjp-21" value="Salary" style="ellipse;whiteSpace=wrap;html=1;align=center;strokeColor=default;verticalAlign=middle;fontFamily=Helvetica;fontSize=18;fontColor=default;fontStyle=0;fillColor=default;" parent="1" vertex="1">
          <mxGeometry x="165" y="234" width="120" height="40" as="geometry" />
        </mxCell>
        <mxCell id="vKgDMpSiNGCdPXtvVYjp-32" value="" style="endArrow=none;html=1;rounded=0;entryX=1;entryY=0.5;entryDx=0;entryDy=0;exitX=0;exitY=0.25;exitDx=0;exitDy=0;" parent="1" source="vKgDMpSiNGCdPXtvVYjp-36" target="vKgDMpSiNGCdPXtvVYjp-35" edge="1">
          <mxGeometry relative="1" as="geometry">
            <mxPoint x="-878.5" y="224" as="sourcePoint" />
            <mxPoint x="-832.4999999999995" y="204" as="targetPoint" />
            <Array as="points" />
          </mxGeometry>
        </mxCell>
        <mxCell id="vKgDMpSiNGCdPXtvVYjp-34" value="" style="endArrow=none;html=1;rounded=0;entryX=0;entryY=0.75;entryDx=0;entryDy=0;exitX=0.5;exitY=0;exitDx=0;exitDy=0;" parent="1" source="vKgDMpSiNGCdPXtvVYjp-37" target="vKgDMpSiNGCdPXtvVYjp-36" edge="1">
          <mxGeometry relative="1" as="geometry">
            <mxPoint x="-772.5" y="243" as="sourcePoint" />
            <mxPoint x="-828.5" y="244" as="targetPoint" />
            <Array as="points" />
          </mxGeometry>
        </mxCell>
        <mxCell id="vKgDMpSiNGCdPXtvVYjp-35" value="YearsAtCompany" style="ellipse;whiteSpace=wrap;html=1;align=center;strokeColor=default;verticalAlign=middle;fontFamily=Helvetica;fontSize=18;fontColor=default;fontStyle=0;fillColor=default;" parent="1" vertex="1">
          <mxGeometry x="-846.5" y="150" width="164" height="40" as="geometry" />
        </mxCell>
        <mxCell id="vKgDMpSiNGCdPXtvVYjp-36" value="&lt;div style=&quot;text-align: left;&quot;&gt;&lt;font face=&quot;-apple-system, BlinkMacSystemFont, Segoe UI, Noto Sans, Helvetica, Arial, sans-serif, Apple Color Emoji, Segoe UI Emoji&quot; color=&quot;#e6edf3&quot;&gt;&lt;span style=&quot;font-size: 18px; background-color: rgb(13, 17, 23);&quot;&gt;History&lt;/span&gt;&lt;/font&gt;&lt;/div&gt;" style="shape=ext;margin=3;double=1;whiteSpace=wrap;html=1;align=center;" parent="1" vertex="1">
          <mxGeometry x="-591" y="163" width="100" height="40" as="geometry" />
        </mxCell>
        <mxCell id="vKgDMpSiNGCdPXtvVYjp-37" value="YearsInMostRecentRole" style="ellipse;whiteSpace=wrap;html=1;align=center;strokeColor=default;verticalAlign=middle;fontFamily=Helvetica;fontSize=18;fontColor=default;fontStyle=0;fillColor=default;" parent="1" vertex="1">
          <mxGeometry x="-846.5" y="203" width="221" height="40" as="geometry" />
        </mxCell>
        <mxCell id="vKgDMpSiNGCdPXtvVYjp-38" value="YearsSinceLastPromotion" style="ellipse;whiteSpace=wrap;html=1;align=center;strokeColor=default;verticalAlign=middle;fontFamily=Helvetica;fontSize=18;fontColor=default;fontStyle=0;fillColor=default;" parent="1" vertex="1">
          <mxGeometry x="-846.5" y="100" width="214" height="40" as="geometry" />
        </mxCell>
        <mxCell id="vKgDMpSiNGCdPXtvVYjp-39" value="" style="endArrow=none;html=1;rounded=0;entryX=1;entryY=0.5;entryDx=0;entryDy=0;exitX=0;exitY=0;exitDx=0;exitDy=0;" parent="1" source="vKgDMpSiNGCdPXtvVYjp-36" target="vKgDMpSiNGCdPXtvVYjp-38" edge="1">
          <mxGeometry relative="1" as="geometry">
            <mxPoint x="-488.5" y="72" as="sourcePoint" />
            <mxPoint x="-858.4999999999995" y="136" as="targetPoint" />
            <Array as="points" />
          </mxGeometry>
        </mxCell>
        <mxCell id="vKgDMpSiNGCdPXtvVYjp-40" value="" style="endArrow=none;html=1;rounded=0;entryX=0;entryY=1;entryDx=0;entryDy=0;exitX=1;exitY=0;exitDx=0;exitDy=0;" parent="1" source="vKgDMpSiNGCdPXtvVYjp-41" target="vKgDMpSiNGCdPXtvVYjp-36" edge="1">
          <mxGeometry relative="1" as="geometry">
            <mxPoint x="-778.5" y="315.5" as="sourcePoint" />
            <mxPoint x="-543.5" y="242.5" as="targetPoint" />
            <Array as="points" />
          </mxGeometry>
        </mxCell>
        <mxCell id="vKgDMpSiNGCdPXtvVYjp-41" value="YearsWithCurrManager" style="ellipse;whiteSpace=wrap;html=1;align=center;strokeColor=default;verticalAlign=middle;fontFamily=Helvetica;fontSize=18;fontColor=default;fontStyle=0;fillColor=default;" parent="1" vertex="1">
          <mxGeometry x="-850" y="259" width="221" height="37.5" as="geometry" />
        </mxCell>
        <mxCell id="vKgDMpSiNGCdPXtvVYjp-42" style="edgeStyle=orthogonalEdgeStyle;rounded=0;orthogonalLoop=1;jettySize=auto;html=1;exitX=0.5;exitY=1;exitDx=0;exitDy=0;" parent="1" source="vKgDMpSiNGCdPXtvVYjp-36" target="vKgDMpSiNGCdPXtvVYjp-36" edge="1">
          <mxGeometry relative="1" as="geometry" />
        </mxCell>
        <mxCell id="vKgDMpSiNGCdPXtvVYjp-43" value="&lt;span style=&quot;line-height: 107%;&quot;&gt;&lt;font style=&quot;font-size: 18px;&quot;&gt;Department&lt;/font&gt;&lt;/span&gt;" style="whiteSpace=wrap;html=1;align=center;strokeColor=default;verticalAlign=middle;fontFamily=Helvetica;fontSize=22;fontColor=default;fillColor=default;rotation=-30;" parent="1" vertex="1">
          <mxGeometry x="530" y="150" width="113" height="46" as="geometry" />
        </mxCell>
        <mxCell id="vKgDMpSiNGCdPXtvVYjp-44" value="Name" style="ellipse;whiteSpace=wrap;html=1;align=center;strokeColor=default;verticalAlign=middle;fontFamily=Helvetica;fontSize=18;fontColor=default;fontStyle=0;fillColor=default;" parent="1" vertex="1">
          <mxGeometry x="713" y="103" width="127" height="40" as="geometry" />
        </mxCell>
        <mxCell id="vKgDMpSiNGCdPXtvVYjp-45" value="" style="endArrow=none;html=1;rounded=0;exitX=1;exitY=0.25;exitDx=0;exitDy=0;entryX=0;entryY=0.5;entryDx=0;entryDy=0;" parent="1" source="vKgDMpSiNGCdPXtvVYjp-43" target="vKgDMpSiNGCdPXtvVYjp-48" edge="1">
          <mxGeometry relative="1" as="geometry">
            <mxPoint x="1136" y="67" as="sourcePoint" />
            <mxPoint x="963" y="-56" as="targetPoint" />
            <Array as="points" />
          </mxGeometry>
        </mxCell>
        <mxCell id="vKgDMpSiNGCdPXtvVYjp-46" value="Manger_Id" style="ellipse;whiteSpace=wrap;html=1;align=center;strokeColor=default;verticalAlign=middle;fontFamily=Helvetica;fontSize=18;fontColor=default;fontStyle=0;fillColor=default;" parent="1" vertex="1">
          <mxGeometry x="673" y="159" width="165" height="34" as="geometry" />
        </mxCell>
        <mxCell id="vKgDMpSiNGCdPXtvVYjp-47" value="" style="endArrow=none;html=1;rounded=0;entryX=0;entryY=0;entryDx=0;entryDy=0;exitX=1;exitY=1;exitDx=0;exitDy=0;" parent="1" source="vKgDMpSiNGCdPXtvVYjp-43" target="vKgDMpSiNGCdPXtvVYjp-46" edge="1">
          <mxGeometry relative="1" as="geometry">
            <mxPoint x="1136" y="90" as="sourcePoint" />
            <mxPoint x="1087.5" y="96" as="targetPoint" />
            <Array as="points" />
          </mxGeometry>
        </mxCell>
        <mxCell id="vKgDMpSiNGCdPXtvVYjp-48" value="ID" style="ellipse;whiteSpace=wrap;html=1;align=center;fontStyle=4;strokeColor=default;verticalAlign=middle;fontFamily=Helvetica;fontSize=18;fontColor=default;fillColor=default;" parent="1" vertex="1">
          <mxGeometry x="733" y="47" width="98" height="40" as="geometry" />
        </mxCell>
        <mxCell id="vKgDMpSiNGCdPXtvVYjp-49" value="" style="endArrow=none;html=1;rounded=0;entryX=0;entryY=0.5;entryDx=0;entryDy=0;exitX=1;exitY=0.5;exitDx=0;exitDy=0;" parent="1" source="vKgDMpSiNGCdPXtvVYjp-43" target="vKgDMpSiNGCdPXtvVYjp-44" edge="1">
          <mxGeometry relative="1" as="geometry">
            <mxPoint x="1136" y="78.5" as="sourcePoint" />
            <mxPoint x="1048" y="-27" as="targetPoint" />
            <Array as="points" />
          </mxGeometry>
        </mxCell>
        <mxCell id="vKgDMpSiNGCdPXtvVYjp-51" value="&lt;span style=&quot;line-height: 107%;&quot;&gt;&lt;font style=&quot;font-size: 18px;&quot;&gt;Rate&lt;/font&gt;&lt;/span&gt;" style="whiteSpace=wrap;html=1;align=center;strokeColor=default;verticalAlign=middle;fontFamily=Helvetica;fontSize=22;fontColor=default;fillColor=default;" parent="1" vertex="1">
          <mxGeometry x="403" y="687" width="113" height="46" as="geometry" />
        </mxCell>
        <mxCell id="vKgDMpSiNGCdPXtvVYjp-52" value="Rating_Level" style="ellipse;whiteSpace=wrap;html=1;align=center;strokeColor=default;verticalAlign=middle;fontFamily=Helvetica;fontSize=18;fontColor=default;fontStyle=0;fillColor=default;" parent="1" vertex="1">
          <mxGeometry x="636" y="706" width="148" height="40" as="geometry" />
        </mxCell>
        <mxCell id="vKgDMpSiNGCdPXtvVYjp-53" value="" style="endArrow=none;html=1;rounded=0;exitX=1;exitY=0.25;exitDx=0;exitDy=0;entryX=0;entryY=0.5;entryDx=0;entryDy=0;" parent="1" source="vKgDMpSiNGCdPXtvVYjp-51" target="vKgDMpSiNGCdPXtvVYjp-56" edge="1">
          <mxGeometry relative="1" as="geometry">
            <mxPoint x="1059" y="670" as="sourcePoint" />
            <mxPoint x="886" y="547" as="targetPoint" />
            <Array as="points" />
          </mxGeometry>
        </mxCell>
        <mxCell id="vKgDMpSiNGCdPXtvVYjp-56" value="ID" style="ellipse;whiteSpace=wrap;html=1;align=center;fontStyle=4;strokeColor=default;verticalAlign=middle;fontFamily=Helvetica;fontSize=18;fontColor=default;fillColor=default;" parent="1" vertex="1">
          <mxGeometry x="656" y="650" width="98" height="40" as="geometry" />
        </mxCell>
        <mxCell id="vKgDMpSiNGCdPXtvVYjp-57" value="" style="endArrow=none;html=1;rounded=0;entryX=0;entryY=0.5;entryDx=0;entryDy=0;exitX=1;exitY=0.5;exitDx=0;exitDy=0;" parent="1" source="vKgDMpSiNGCdPXtvVYjp-51" target="vKgDMpSiNGCdPXtvVYjp-52" edge="1">
          <mxGeometry relative="1" as="geometry">
            <mxPoint x="1059" y="681.5" as="sourcePoint" />
            <mxPoint x="971" y="576" as="targetPoint" />
            <Array as="points" />
          </mxGeometry>
        </mxCell>
        <mxCell id="vKgDMpSiNGCdPXtvVYjp-59" value="&lt;span style=&quot;text-align: left;&quot;&gt;&lt;font style=&quot;font-size: 18px;&quot;&gt;Satisfaction&lt;/font&gt;&lt;/span&gt;" style="whiteSpace=wrap;html=1;align=center;strokeColor=default;verticalAlign=middle;fontFamily=Helvetica;fontSize=22;fontColor=default;fillColor=default;" parent="1" vertex="1">
          <mxGeometry x="-610" y="737" width="113" height="46" as="geometry" />
        </mxCell>
        <mxCell id="vKgDMpSiNGCdPXtvVYjp-60" value="&lt;span style=&quot;text-align: left;&quot;&gt;&lt;font style=&quot;font-size: 18px;&quot;&gt;SatisfactionLevel&lt;/font&gt;&lt;/span&gt;" style="ellipse;whiteSpace=wrap;html=1;align=center;strokeColor=default;verticalAlign=middle;fontFamily=Helvetica;fontSize=18;fontColor=default;fontStyle=0;fillColor=default;" parent="1" vertex="1">
          <mxGeometry x="-846.5" y="783" width="148" height="40" as="geometry" />
        </mxCell>
        <mxCell id="vKgDMpSiNGCdPXtvVYjp-61" value="" style="endArrow=none;html=1;rounded=0;exitX=0;exitY=0.25;exitDx=0;exitDy=0;entryX=1;entryY=0.5;entryDx=0;entryDy=0;" parent="1" source="vKgDMpSiNGCdPXtvVYjp-59" target="vKgDMpSiNGCdPXtvVYjp-62" edge="1">
          <mxGeometry relative="1" as="geometry">
            <mxPoint x="46" y="720" as="sourcePoint" />
            <mxPoint x="-127" y="597" as="targetPoint" />
            <Array as="points" />
          </mxGeometry>
        </mxCell>
        <mxCell id="vKgDMpSiNGCdPXtvVYjp-62" value="ID" style="ellipse;whiteSpace=wrap;html=1;align=center;fontStyle=4;strokeColor=default;verticalAlign=middle;fontFamily=Helvetica;fontSize=18;fontColor=default;fillColor=default;" parent="1" vertex="1">
          <mxGeometry x="-838.5" y="716" width="98" height="40" as="geometry" />
        </mxCell>
        <mxCell id="vKgDMpSiNGCdPXtvVYjp-63" value="" style="endArrow=none;html=1;rounded=0;entryX=1;entryY=0.5;entryDx=0;entryDy=0;exitX=0;exitY=0.75;exitDx=0;exitDy=0;" parent="1" source="vKgDMpSiNGCdPXtvVYjp-59" target="vKgDMpSiNGCdPXtvVYjp-60" edge="1">
          <mxGeometry relative="1" as="geometry">
            <mxPoint x="46" y="731.5" as="sourcePoint" />
            <mxPoint x="-42" y="626" as="targetPoint" />
            <Array as="points" />
          </mxGeometry>
        </mxCell>
        <mxCell id="vKgDMpSiNGCdPXtvVYjp-64" value="&lt;span style=&quot;line-height: 107%;&quot;&gt;&lt;font style=&quot;font-size: 18px;&quot;&gt;Review&lt;/font&gt;&lt;/span&gt;" style="whiteSpace=wrap;html=1;align=center;strokeColor=default;verticalAlign=middle;fontFamily=Helvetica;fontSize=22;fontColor=default;fillColor=default;" parent="1" vertex="1">
          <mxGeometry x="-128" y="783" width="158" height="66" as="geometry" />
        </mxCell>
        <mxCell id="vKgDMpSiNGCdPXtvVYjp-65" value="EnvironmentSatisfaction" style="ellipse;whiteSpace=wrap;html=1;align=center;strokeColor=default;verticalAlign=middle;fontFamily=Helvetica;fontSize=18;fontColor=default;fontStyle=0;fillColor=default;" parent="1" vertex="1">
          <mxGeometry x="-430" y="818" width="229" height="40" as="geometry" />
        </mxCell>
        <mxCell id="vKgDMpSiNGCdPXtvVYjp-66" value="" style="endArrow=none;html=1;rounded=0;entryX=1;entryY=0;entryDx=0;entryDy=0;exitX=0;exitY=0.5;exitDx=0;exitDy=0;" parent="1" source="vKgDMpSiNGCdPXtvVYjp-64" target="vKgDMpSiNGCdPXtvVYjp-65" edge="1">
          <mxGeometry relative="1" as="geometry">
            <mxPoint x="-92.5" y="856" as="sourcePoint" />
            <mxPoint x="-134.5" y="831" as="targetPoint" />
            <Array as="points" />
          </mxGeometry>
        </mxCell>
        <mxCell id="vKgDMpSiNGCdPXtvVYjp-67" value="JobSatisfaction" style="ellipse;whiteSpace=wrap;html=1;align=center;strokeColor=default;verticalAlign=middle;fontFamily=Helvetica;fontSize=18;fontColor=default;fontStyle=0;fillColor=default;" parent="1" vertex="1">
          <mxGeometry x="-430" y="870" width="165" height="34" as="geometry" />
        </mxCell>
        <mxCell id="vKgDMpSiNGCdPXtvVYjp-68" value="" style="endArrow=none;html=1;rounded=0;entryX=1;entryY=0;entryDx=0;entryDy=0;exitX=0;exitY=1;exitDx=0;exitDy=0;" parent="1" source="vKgDMpSiNGCdPXtvVYjp-64" target="vKgDMpSiNGCdPXtvVYjp-67" edge="1">
          <mxGeometry relative="1" as="geometry">
            <mxPoint x="-92.5" y="876" as="sourcePoint" />
            <mxPoint x="-141.5" y="852" as="targetPoint" />
            <Array as="points" />
          </mxGeometry>
        </mxCell>
        <mxCell id="vKgDMpSiNGCdPXtvVYjp-69" value="" style="endArrow=none;html=1;rounded=0;entryX=1;entryY=0;entryDx=0;entryDy=0;exitX=0;exitY=1;exitDx=0;exitDy=0;" parent="1" source="vKgDMpSiNGCdPXtvVYjp-64" target="vKgDMpSiNGCdPXtvVYjp-70" edge="1">
          <mxGeometry relative="1" as="geometry">
            <mxPoint x="-93" y="890" as="sourcePoint" />
            <mxPoint x="-141.5" y="896" as="targetPoint" />
            <Array as="points" />
          </mxGeometry>
        </mxCell>
        <mxCell id="vKgDMpSiNGCdPXtvVYjp-70" value="RelationshipSatisfaction" style="ellipse;whiteSpace=wrap;html=1;align=center;strokeColor=default;verticalAlign=middle;fontFamily=Helvetica;fontSize=18;fontColor=default;fontStyle=0;fillColor=default;" parent="1" vertex="1">
          <mxGeometry x="-490" y="914" width="225" height="34" as="geometry" />
        </mxCell>
        <mxCell id="vKgDMpSiNGCdPXtvVYjp-71" value="" style="endArrow=none;html=1;rounded=0;exitX=0.25;exitY=1;exitDx=0;exitDy=0;entryX=1;entryY=0.5;entryDx=0;entryDy=0;" parent="1" source="vKgDMpSiNGCdPXtvVYjp-64" target="vKgDMpSiNGCdPXtvVYjp-72" edge="1">
          <mxGeometry relative="1" as="geometry">
            <mxPoint x="-192.75" y="1002" as="sourcePoint" />
            <mxPoint x="290.25" y="850" as="targetPoint" />
            <Array as="points" />
          </mxGeometry>
        </mxCell>
        <mxCell id="vKgDMpSiNGCdPXtvVYjp-72" value="ID" style="ellipse;whiteSpace=wrap;html=1;align=center;fontStyle=4;strokeColor=default;verticalAlign=middle;fontFamily=Helvetica;fontSize=18;fontColor=default;fillColor=default;" parent="1" vertex="1">
          <mxGeometry x="-421.25" y="969" width="98" height="40" as="geometry" />
        </mxCell>
        <mxCell id="vKgDMpSiNGCdPXtvVYjp-75" value="WorkLifeBalance" style="ellipse;whiteSpace=wrap;html=1;align=center;strokeColor=default;verticalAlign=middle;fontFamily=Helvetica;fontSize=18;fontColor=default;fontStyle=0;fillColor=default;" parent="1" vertex="1">
          <mxGeometry x="-401" y="1009" width="190" height="40" as="geometry" />
        </mxCell>
        <mxCell id="vKgDMpSiNGCdPXtvVYjp-76" value="" style="endArrow=none;html=1;rounded=0;entryX=1;entryY=0;entryDx=0;entryDy=0;exitX=0.25;exitY=1;exitDx=0;exitDy=0;" parent="1" source="vKgDMpSiNGCdPXtvVYjp-64" target="vKgDMpSiNGCdPXtvVYjp-75" edge="1">
          <mxGeometry relative="1" as="geometry">
            <mxPoint x="-23" y="1017.5" as="sourcePoint" />
            <mxPoint x="-64.5" y="1035.5" as="targetPoint" />
            <Array as="points" />
          </mxGeometry>
        </mxCell>
        <mxCell id="vKgDMpSiNGCdPXtvVYjp-77" value="ReviewDate" style="ellipse;whiteSpace=wrap;html=1;align=center;strokeColor=default;verticalAlign=middle;fontFamily=Helvetica;fontSize=18;fontColor=default;fontStyle=0;fillColor=default;" parent="1" vertex="1">
          <mxGeometry x="-265" y="1049" width="165" height="34" as="geometry" />
        </mxCell>
        <mxCell id="vKgDMpSiNGCdPXtvVYjp-78" value="" style="endArrow=none;html=1;rounded=0;entryX=0.5;entryY=0;entryDx=0;entryDy=0;exitX=0.5;exitY=1;exitDx=0;exitDy=0;" parent="1" source="vKgDMpSiNGCdPXtvVYjp-64" target="vKgDMpSiNGCdPXtvVYjp-77" edge="1">
          <mxGeometry relative="1" as="geometry">
            <mxPoint x="138" y="990" as="sourcePoint" />
            <mxPoint x="89.5" y="996" as="targetPoint" />
            <Array as="points" />
          </mxGeometry>
        </mxCell>
        <mxCell id="vKgDMpSiNGCdPXtvVYjp-79" value="SelfRating" style="ellipse;whiteSpace=wrap;html=1;align=center;strokeColor=default;verticalAlign=middle;fontFamily=Helvetica;fontSize=18;fontColor=default;fontStyle=0;fillColor=default;" parent="1" vertex="1">
          <mxGeometry x="78.75" y="1029" width="165" height="34" as="geometry" />
        </mxCell>
        <mxCell id="vKgDMpSiNGCdPXtvVYjp-80" value="" style="endArrow=none;html=1;rounded=0;entryX=0;entryY=0.5;entryDx=0;entryDy=0;exitX=0.5;exitY=1;exitDx=0;exitDy=0;" parent="1" source="vKgDMpSiNGCdPXtvVYjp-64" target="vKgDMpSiNGCdPXtvVYjp-79" edge="1">
          <mxGeometry relative="1" as="geometry">
            <mxPoint x="50" y="919" as="sourcePoint" />
            <mxPoint x="116.5" y="1076" as="targetPoint" />
            <Array as="points" />
          </mxGeometry>
        </mxCell>
        <mxCell id="vKgDMpSiNGCdPXtvVYjp-81" value="" style="endArrow=none;html=1;rounded=0;entryX=0;entryY=0.5;entryDx=0;entryDy=0;exitX=0.75;exitY=1;exitDx=0;exitDy=0;" parent="1" source="vKgDMpSiNGCdPXtvVYjp-64" target="vKgDMpSiNGCdPXtvVYjp-82" edge="1">
          <mxGeometry relative="1" as="geometry">
            <mxPoint x="50" y="886" as="sourcePoint" />
            <mxPoint x="153.5" y="1002" as="targetPoint" />
            <Array as="points" />
          </mxGeometry>
        </mxCell>
        <mxCell id="vKgDMpSiNGCdPXtvVYjp-82" value="ManagerRating" style="ellipse;whiteSpace=wrap;html=1;align=center;strokeColor=default;verticalAlign=middle;fontFamily=Helvetica;fontSize=18;fontColor=default;fontStyle=0;fillColor=default;" parent="1" vertex="1">
          <mxGeometry x="100.25" y="969" width="181" height="48" as="geometry" />
        </mxCell>
        <mxCell id="vKgDMpSiNGCdPXtvVYjp-83" value="&lt;span style=&quot;font-size: 18px;&quot;&gt;Has&lt;/span&gt;" style="shape=rhombus;perimeter=rhombusPerimeter;whiteSpace=wrap;html=1;align=center;" parent="1" vertex="1">
          <mxGeometry x="-113" y="560" width="120" height="60" as="geometry" />
        </mxCell>
        <mxCell id="vKgDMpSiNGCdPXtvVYjp-86" value="" style="endArrow=none;html=1;rounded=0;fontSize=18;exitX=0.75;exitY=1;exitDx=0;exitDy=0;entryX=0.5;entryY=0;entryDx=0;entryDy=0;" parent="1" target="vKgDMpSiNGCdPXtvVYjp-83" edge="1">
          <mxGeometry relative="1" as="geometry">
            <mxPoint x="-56.5" y="406" as="sourcePoint" />
            <mxPoint x="168.5" y="501" as="targetPoint" />
          </mxGeometry>
        </mxCell>
        <mxCell id="vKgDMpSiNGCdPXtvVYjp-87" value="1" style="resizable=0;html=1;align=right;verticalAlign=bottom;fontSize=26;" parent="vKgDMpSiNGCdPXtvVYjp-86" connectable="0" vertex="1">
          <mxGeometry x="1" relative="1" as="geometry">
            <mxPoint x="-5" y="-6" as="offset" />
          </mxGeometry>
        </mxCell>
        <mxCell id="vKgDMpSiNGCdPXtvVYjp-88" value="" style="shape=link;html=1;rounded=0;fontFamily=Helvetica;fontSize=100;fontColor=default;fontStyle=0;resizable=0;entryX=0.5;entryY=1;entryDx=0;entryDy=0;exitX=0.5;exitY=0;exitDx=0;exitDy=0;verticalAlign=middle;width=8.18181818181818;" parent="1" source="vKgDMpSiNGCdPXtvVYjp-64" target="vKgDMpSiNGCdPXtvVYjp-83" edge="1">
          <mxGeometry relative="1" as="geometry">
            <mxPoint x="70" y="750" as="sourcePoint" />
            <mxPoint x="-60" y="640" as="targetPoint" />
          </mxGeometry>
        </mxCell>
        <mxCell id="vKgDMpSiNGCdPXtvVYjp-89" value="N" style="resizable=0;html=1;whiteSpace=wrap;align=right;verticalAlign=bottom;strokeColor=default;fontFamily=Helvetica;fontSize=25;fontColor=default;fontStyle=0;fillColor=default;" parent="vKgDMpSiNGCdPXtvVYjp-88" connectable="0" vertex="1">
          <mxGeometry x="1" relative="1" as="geometry">
            <mxPoint x="-9" y="35" as="offset" />
          </mxGeometry>
        </mxCell>
        <mxCell id="vKgDMpSiNGCdPXtvVYjp-109" value="N" style="resizable=0;html=1;whiteSpace=wrap;align=right;verticalAlign=bottom;strokeColor=default;fontFamily=Helvetica;fontSize=25;fontColor=default;fontStyle=0;fillColor=default;" parent="vKgDMpSiNGCdPXtvVYjp-88" connectable="0" vertex="1">
          <mxGeometry x="1" relative="1" as="geometry">
            <mxPoint x="333" y="-309" as="offset" />
          </mxGeometry>
        </mxCell>
        <mxCell id="vKgDMpSiNGCdPXtvVYjp-129" value="N" style="resizable=0;html=1;whiteSpace=wrap;align=right;verticalAlign=bottom;strokeColor=default;fontFamily=Helvetica;fontSize=25;fontColor=default;fontStyle=0;fillColor=default;" parent="vKgDMpSiNGCdPXtvVYjp-88" connectable="0" vertex="1">
          <mxGeometry x="1" relative="1" as="geometry">
            <mxPoint x="173" y="140" as="offset" />
          </mxGeometry>
        </mxCell>
        <mxCell id="vKgDMpSiNGCdPXtvVYjp-136" value="N" style="resizable=0;html=1;whiteSpace=wrap;align=right;verticalAlign=bottom;strokeColor=default;fontFamily=Helvetica;fontSize=25;fontColor=default;fontStyle=0;fillColor=default;" parent="vKgDMpSiNGCdPXtvVYjp-88" connectable="0" vertex="1">
          <mxGeometry x="1" relative="1" as="geometry">
            <mxPoint x="-227" y="112" as="offset" />
          </mxGeometry>
        </mxCell>
        <mxCell id="vKgDMpSiNGCdPXtvVYjp-90" value="" style="shape=link;html=1;rounded=0;fontFamily=Helvetica;fontSize=100;fontColor=default;fontStyle=0;resizable=0;entryX=0;entryY=0.5;entryDx=0;entryDy=0;exitX=1;exitY=0.5;exitDx=0;exitDy=0;verticalAlign=middle;width=8.18181818181818;" parent="1" source="vKgDMpSiNGCdPXtvVYjp-36" target="vKgDMpSiNGCdPXtvVYjp-94" edge="1">
          <mxGeometry relative="1" as="geometry">
            <mxPoint x="-317" y="411.5" as="sourcePoint" />
            <mxPoint x="-328" y="268.5" as="targetPoint" />
          </mxGeometry>
        </mxCell>
        <mxCell id="vKgDMpSiNGCdPXtvVYjp-92" value="" style="endArrow=none;html=1;rounded=0;fontSize=18;exitX=0;exitY=0.5;exitDx=0;exitDy=0;entryX=1;entryY=0.5;entryDx=0;entryDy=0;" parent="1" source="NUFsKL0PFLLsc1Rbk0hu-1" target="vKgDMpSiNGCdPXtvVYjp-94" edge="1">
          <mxGeometry relative="1" as="geometry">
            <mxPoint x="-324.5" y="34.5" as="sourcePoint" />
            <mxPoint x="-99.5" y="129.5" as="targetPoint" />
          </mxGeometry>
        </mxCell>
        <mxCell id="vKgDMpSiNGCdPXtvVYjp-93" value="1" style="resizable=0;html=1;align=right;verticalAlign=bottom;fontSize=26;" parent="vKgDMpSiNGCdPXtvVYjp-92" connectable="0" vertex="1">
          <mxGeometry x="1" relative="1" as="geometry">
            <mxPoint x="1" y="40" as="offset" />
          </mxGeometry>
        </mxCell>
        <mxCell id="vKgDMpSiNGCdPXtvVYjp-94" value="&lt;span style=&quot;font-size: 18px;&quot;&gt;Has&lt;/span&gt;" style="shape=rhombus;perimeter=rhombusPerimeter;whiteSpace=wrap;html=1;align=center;rotation=30;" parent="1" vertex="1">
          <mxGeometry x="-381" y="179.75" width="120" height="68.5" as="geometry" />
        </mxCell>
        <mxCell id="vKgDMpSiNGCdPXtvVYjp-96" value="1" style="resizable=0;html=1;align=right;verticalAlign=bottom;fontSize=26;" parent="1" connectable="0" vertex="1">
          <mxGeometry x="-243.00336875142213" y="163.0010493434684" as="geometry">
            <mxPoint x="-139" y="17" as="offset" />
          </mxGeometry>
        </mxCell>
        <mxCell id="vKgDMpSiNGCdPXtvVYjp-101" value="&lt;span style=&quot;font-size: 18px;&quot;&gt;Has&lt;/span&gt;" style="shape=rhombus;perimeter=rhombusPerimeter;whiteSpace=wrap;html=1;align=center;rotation=15;" parent="1" vertex="1">
          <mxGeometry x="120" y="464" width="120" height="68.5" as="geometry" />
        </mxCell>
        <mxCell id="vKgDMpSiNGCdPXtvVYjp-104" value="&lt;span style=&quot;font-size: 18px;&quot;&gt;Works&lt;/span&gt;" style="shape=rhombus;perimeter=rhombusPerimeter;whiteSpace=wrap;html=1;align=center;rotation=-15;" parent="1" vertex="1">
          <mxGeometry x="283" y="259" width="120" height="68.5" as="geometry" />
        </mxCell>
        <mxCell id="vKgDMpSiNGCdPXtvVYjp-108" value="" style="shape=link;html=1;rounded=0;fontFamily=Helvetica;fontSize=100;fontColor=default;fontStyle=0;resizable=0;exitX=0;exitY=0.5;exitDx=0;exitDy=0;verticalAlign=middle;width=8.18181818181818;entryX=1;entryY=0.5;entryDx=0;entryDy=0;" parent="1" source="vKgDMpSiNGCdPXtvVYjp-104" target="NUFsKL0PFLLsc1Rbk0hu-1" edge="1">
          <mxGeometry relative="1" as="geometry">
            <mxPoint x="266.5" y="310" as="sourcePoint" />
            <mxPoint x="141.5" y="326" as="targetPoint" />
          </mxGeometry>
        </mxCell>
        <mxCell id="vKgDMpSiNGCdPXtvVYjp-116" value="" style="shape=link;html=1;rounded=0;fontFamily=Helvetica;fontSize=100;fontColor=default;fontStyle=0;resizable=0;exitX=0;exitY=0.5;exitDx=0;exitDy=0;verticalAlign=middle;width=8.18181818181818;entryX=1;entryY=0.5;entryDx=0;entryDy=0;" parent="1" source="vKgDMpSiNGCdPXtvVYjp-43" target="vKgDMpSiNGCdPXtvVYjp-104" edge="1">
          <mxGeometry relative="1" as="geometry">
            <mxPoint x="552" y="232.5" as="sourcePoint" />
            <mxPoint x="300" y="296.5" as="targetPoint" />
          </mxGeometry>
        </mxCell>
        <mxCell id="vKgDMpSiNGCdPXtvVYjp-119" value="&lt;span style=&quot;font-size: 18px;&quot;&gt;Manage&lt;/span&gt;" style="shape=rhombus;perimeter=rhombusPerimeter;whiteSpace=wrap;html=1;align=center;rotation=0;" parent="1" vertex="1">
          <mxGeometry x="305" y="349.5" width="120" height="68.5" as="geometry" />
        </mxCell>
        <mxCell id="vKgDMpSiNGCdPXtvVYjp-120" value="" style="shape=link;html=1;rounded=0;fontFamily=Helvetica;fontSize=100;fontColor=default;fontStyle=0;resizable=0;exitX=0;exitY=1;exitDx=0;exitDy=0;verticalAlign=middle;width=8.18181818181818;entryX=0.893;entryY=0.378;entryDx=0;entryDy=0;entryPerimeter=0;" parent="1" source="vKgDMpSiNGCdPXtvVYjp-43" target="vKgDMpSiNGCdPXtvVYjp-119" edge="1">
          <mxGeometry relative="1" as="geometry">
            <mxPoint x="562" y="310" as="sourcePoint" />
            <mxPoint x="425" y="387" as="targetPoint" />
          </mxGeometry>
        </mxCell>
        <mxCell id="vKgDMpSiNGCdPXtvVYjp-121" value="" style="endArrow=none;html=1;rounded=0;fontSize=18;exitX=1;exitY=0.75;exitDx=0;exitDy=0;entryX=0;entryY=0.5;entryDx=0;entryDy=0;" parent="1" source="NUFsKL0PFLLsc1Rbk0hu-1" target="vKgDMpSiNGCdPXtvVYjp-119" edge="1">
          <mxGeometry relative="1" as="geometry">
            <mxPoint x="67" y="402" as="sourcePoint" />
            <mxPoint x="162" y="464" as="targetPoint" />
          </mxGeometry>
        </mxCell>
        <mxCell id="vKgDMpSiNGCdPXtvVYjp-122" value="1" style="resizable=0;html=1;align=right;verticalAlign=bottom;fontSize=26;" parent="vKgDMpSiNGCdPXtvVYjp-121" connectable="0" vertex="1">
          <mxGeometry x="1" relative="1" as="geometry">
            <mxPoint x="1" y="1" as="offset" />
          </mxGeometry>
        </mxCell>
        <mxCell id="vKgDMpSiNGCdPXtvVYjp-123" value="1" style="resizable=0;html=1;align=right;verticalAlign=bottom;fontSize=26;" parent="vKgDMpSiNGCdPXtvVYjp-121" connectable="0" vertex="1">
          <mxGeometry x="1" relative="1" as="geometry">
            <mxPoint x="110" y="-18" as="offset" />
          </mxGeometry>
        </mxCell>
        <mxCell id="vKgDMpSiNGCdPXtvVYjp-125" value="" style="endArrow=none;html=1;rounded=0;fontSize=18;exitX=0;exitY=0.5;exitDx=0;exitDy=0;entryX=1;entryY=0.5;entryDx=0;entryDy=0;" parent="1" source="vKgDMpSiNGCdPXtvVYjp-51" target="vKgDMpSiNGCdPXtvVYjp-127" edge="1">
          <mxGeometry relative="1" as="geometry">
            <mxPoint x="373.75" y="856.63" as="sourcePoint" />
            <mxPoint x="399.25" y="613.13" as="targetPoint" />
          </mxGeometry>
        </mxCell>
        <mxCell id="vKgDMpSiNGCdPXtvVYjp-126" value="1" style="resizable=0;html=1;align=right;verticalAlign=bottom;fontSize=26;" parent="vKgDMpSiNGCdPXtvVYjp-125" connectable="0" vertex="1">
          <mxGeometry x="1" relative="1" as="geometry">
            <mxPoint x="11" y="-7" as="offset" />
          </mxGeometry>
        </mxCell>
        <mxCell id="vKgDMpSiNGCdPXtvVYjp-127" value="&lt;span style=&quot;font-size: 18px;&quot;&gt;Refer_to&lt;/span&gt;" style="shape=rhombus;perimeter=rhombusPerimeter;whiteSpace=wrap;html=1;align=center;rotation=-15;" parent="1" vertex="1">
          <mxGeometry x="123.75" y="714.5" width="120" height="68.5" as="geometry" />
        </mxCell>
        <mxCell id="vKgDMpSiNGCdPXtvVYjp-128" value="" style="shape=link;html=1;rounded=0;fontFamily=Helvetica;fontSize=100;fontColor=default;fontStyle=0;resizable=0;entryX=0;entryY=0.5;entryDx=0;entryDy=0;exitX=1;exitY=0;exitDx=0;exitDy=0;verticalAlign=middle;width=8.18181818181818;" parent="1" source="vKgDMpSiNGCdPXtvVYjp-64" target="vKgDMpSiNGCdPXtvVYjp-127" edge="1">
          <mxGeometry relative="1" as="geometry">
            <mxPoint x="7.75" y="666.63" as="sourcePoint" />
            <mxPoint x="170.75" y="752.13" as="targetPoint" />
          </mxGeometry>
        </mxCell>
        <mxCell id="vKgDMpSiNGCdPXtvVYjp-130" value="" style="shape=link;html=1;rounded=0;fontFamily=Helvetica;fontSize=100;fontColor=default;fontStyle=0;resizable=0;exitX=0;exitY=0;exitDx=0;exitDy=0;verticalAlign=middle;width=8.18181818181818;entryX=0.86;entryY=0.418;entryDx=0;entryDy=0;entryPerimeter=0;" parent="1" source="vKgDMpSiNGCdPXtvVYjp-64" target="vKgDMpSiNGCdPXtvVYjp-135" edge="1">
          <mxGeometry relative="1" as="geometry">
            <mxPoint x="-186" y="719.5" as="sourcePoint" />
            <mxPoint x="-311.0384757729339" y="735.75" as="targetPoint" />
          </mxGeometry>
        </mxCell>
        <mxCell id="vKgDMpSiNGCdPXtvVYjp-131" value="" style="endArrow=none;html=1;rounded=0;fontSize=18;exitX=1;exitY=0.5;exitDx=0;exitDy=0;entryX=0;entryY=0.5;entryDx=0;entryDy=0;" parent="1" source="vKgDMpSiNGCdPXtvVYjp-59" target="vKgDMpSiNGCdPXtvVYjp-135" edge="1">
          <mxGeometry relative="1" as="geometry">
            <mxPoint x="-510" y="619.5" as="sourcePoint" />
            <mxPoint x="-92.5" y="643.25" as="targetPoint" />
          </mxGeometry>
        </mxCell>
        <mxCell id="vKgDMpSiNGCdPXtvVYjp-132" value="1" style="resizable=0;html=1;align=right;verticalAlign=bottom;fontSize=26;" parent="vKgDMpSiNGCdPXtvVYjp-131" connectable="0" vertex="1">
          <mxGeometry x="1" relative="1" as="geometry">
            <mxPoint x="1" y="-6" as="offset" />
          </mxGeometry>
        </mxCell>
        <mxCell id="vKgDMpSiNGCdPXtvVYjp-134" value="1" style="resizable=0;html=1;align=right;verticalAlign=bottom;fontSize=26;" parent="vKgDMpSiNGCdPXtvVYjp-131" connectable="0" vertex="1">
          <mxGeometry x="1" relative="1" as="geometry">
            <mxPoint x="273" y="-198" as="offset" />
          </mxGeometry>
        </mxCell>
        <mxCell id="vKgDMpSiNGCdPXtvVYjp-135" value="&lt;span style=&quot;font-size: 18px;&quot;&gt;Refer_to&lt;/span&gt;" style="shape=rhombus;perimeter=rhombusPerimeter;whiteSpace=wrap;html=1;align=center;rotation=-5;" parent="1" vertex="1">
          <mxGeometry x="-421.25" y="706" width="120" height="68.5" as="geometry" />
        </mxCell>
        <mxCell id="vKgDMpSiNGCdPXtvVYjp-137" value="&lt;div style=&quot;text-align: center;&quot;&gt;&lt;font style=&quot;background-color: initial; font-size: 18px;&quot;&gt;&amp;nbsp; &amp;nbsp; ID&amp;nbsp; &amp;nbsp; &amp;nbsp; &amp;nbsp; &amp;nbsp;F_Name&amp;nbsp; &amp;nbsp;L_Name&amp;nbsp; &amp;nbsp; &amp;nbsp;Gender&amp;nbsp; &amp;nbsp; &amp;nbsp;Age&lt;span style=&quot;white-space: pre;&quot;&gt;&#x9;&lt;/span&gt;&amp;nbsp;&lt;/font&gt;&lt;span style=&quot;background-color: initial; font-size: 18px; text-align: center;&quot;&gt;Attrition&amp;nbsp; &lt;/span&gt;&lt;span style=&quot;background-color: initial; font-size: 18px; text-align: center;&quot;&gt;OverTime&amp;nbsp; &amp;nbsp;&amp;nbsp;&lt;/span&gt;&lt;span style=&quot;background-color: initial; font-size: 18px; text-align: center;&quot;&gt;Job Role&amp;nbsp; &amp;nbsp;&lt;/span&gt;&lt;span style=&quot;background-color: initial; font-size: 18px; text-align: center;&quot;&gt;Hire_date&amp;nbsp; &amp;nbsp;&lt;/span&gt;&lt;span style=&quot;background-color: initial; font-size: 18px; text-align: center;&quot;&gt;Salary&amp;nbsp; &lt;/span&gt;&lt;span style=&quot;background-color: initial; font-size: 18px; text-align: center;&quot;&gt;BusinessTravel&amp;nbsp; &amp;nbsp;&lt;/span&gt;&lt;span style=&quot;background-color: initial; font-size: 18px; text-align: center;&quot;&gt;Distance_From_home&amp;nbsp; &lt;/span&gt;&lt;span style=&quot;background-color: initial; text-align: center;&quot;&gt;&lt;span style=&quot;font-size: 18px;&quot;&gt;MaritalStatus&amp;nbsp; State&lt;/span&gt;&lt;span style=&quot;font-size: 18px; white-space: pre;&quot;&gt;&#x9;&lt;/span&gt;&lt;span style=&quot;font-size: 18px;&quot;&gt;Dept_Id&lt;/span&gt;&lt;span style=&quot;font-size: 18px; white-space: pre;&quot;&gt;&#x9;&lt;/span&gt;&lt;span style=&quot;font-size: 18px;&quot;&gt;Education_id&lt;/span&gt;&lt;/span&gt;&lt;/div&gt;" style="rounded=0;whiteSpace=wrap;html=1;align=left;" parent="1" vertex="1">
          <mxGeometry x="-697" y="1297.68" width="1517" height="40" as="geometry" />
        </mxCell>
        <mxCell id="vKgDMpSiNGCdPXtvVYjp-139" value="" style="endArrow=none;html=1;rounded=0;exitX=0.107;exitY=1.058;exitDx=0;exitDy=0;exitPerimeter=0;" parent="1" edge="1">
          <mxGeometry width="50" height="50" relative="1" as="geometry">
            <mxPoint x="-540" y="1339.68" as="sourcePoint" />
            <mxPoint x="-540" y="1297.68" as="targetPoint" />
          </mxGeometry>
        </mxCell>
        <mxCell id="vKgDMpSiNGCdPXtvVYjp-141" value="" style="endArrow=none;html=1;rounded=0;exitX=0.107;exitY=1.058;exitDx=0;exitDy=0;exitPerimeter=0;" parent="1" edge="1">
          <mxGeometry width="50" height="50" relative="1" as="geometry">
            <mxPoint x="-361" y="1339.68" as="sourcePoint" />
            <mxPoint x="-361" y="1297.68" as="targetPoint" />
          </mxGeometry>
        </mxCell>
        <mxCell id="vKgDMpSiNGCdPXtvVYjp-142" value="" style="endArrow=none;html=1;rounded=0;strokeWidth=3;" parent="1" edge="1">
          <mxGeometry width="50" height="50" relative="1" as="geometry">
            <mxPoint x="-658" y="1327.68" as="sourcePoint" />
            <mxPoint x="-678" y="1327.68" as="targetPoint" />
          </mxGeometry>
        </mxCell>
        <mxCell id="vKgDMpSiNGCdPXtvVYjp-143" value="&lt;span style=&quot;font-family: Cambria, serif; text-wrap: wrap;&quot;&gt;&lt;font style=&quot;font-size: 24px;&quot;&gt;Employee&lt;/font&gt;&lt;/span&gt;" style="text;html=1;align=center;verticalAlign=middle;resizable=0;points=[];autosize=1;strokeColor=none;fillColor=none;" parent="1" vertex="1">
          <mxGeometry x="-722" y="1260.68" width="120" height="40" as="geometry" />
        </mxCell>
        <mxCell id="vKgDMpSiNGCdPXtvVYjp-187" value="" style="endArrow=none;html=1;rounded=0;exitX=0.107;exitY=1.058;exitDx=0;exitDy=0;exitPerimeter=0;" parent="1" edge="1">
          <mxGeometry width="50" height="50" relative="1" as="geometry">
            <mxPoint x="-445" y="1340.68" as="sourcePoint" />
            <mxPoint x="-445" y="1298.68" as="targetPoint" />
          </mxGeometry>
        </mxCell>
        <mxCell id="vKgDMpSiNGCdPXtvVYjp-192" value="" style="endArrow=none;html=1;rounded=0;" parent="1" edge="1">
          <mxGeometry width="50" height="50" relative="1" as="geometry">
            <mxPoint x="-301" y="1340" as="sourcePoint" />
            <mxPoint x="-301" y="1299.68" as="targetPoint" />
          </mxGeometry>
        </mxCell>
        <mxCell id="vKgDMpSiNGCdPXtvVYjp-194" value="" style="endArrow=none;html=1;rounded=0;exitX=0.107;exitY=1.058;exitDx=0;exitDy=0;exitPerimeter=0;" parent="1" edge="1">
          <mxGeometry width="50" height="50" relative="1" as="geometry">
            <mxPoint x="-629" y="1339.68" as="sourcePoint" />
            <mxPoint x="-629" y="1297.68" as="targetPoint" />
          </mxGeometry>
        </mxCell>
        <mxCell id="vKgDMpSiNGCdPXtvVYjp-195" value="Distance_From_home" style="ellipse;whiteSpace=wrap;html=1;align=center;strokeColor=default;verticalAlign=middle;fontFamily=Helvetica;fontSize=18;fontColor=default;fontStyle=0;fillColor=default;" parent="1" vertex="1">
          <mxGeometry x="-430" y="474" width="201" height="34" as="geometry" />
        </mxCell>
        <mxCell id="vKgDMpSiNGCdPXtvVYjp-196" value="" style="endArrow=none;html=1;rounded=0;entryX=1;entryY=0;entryDx=0;entryDy=0;exitX=0.25;exitY=1;exitDx=0;exitDy=0;" parent="1" source="NUFsKL0PFLLsc1Rbk0hu-1" target="vKgDMpSiNGCdPXtvVYjp-195" edge="1">
          <mxGeometry relative="1" as="geometry">
            <mxPoint x="-128" y="450" as="sourcePoint" />
            <mxPoint x="-176.5" y="456" as="targetPoint" />
            <Array as="points" />
          </mxGeometry>
        </mxCell>
        <mxCell id="vKgDMpSiNGCdPXtvVYjp-197" value="&lt;div style=&quot;text-align: center;&quot;&gt;&lt;font style=&quot;background-color: initial; font-size: 18px;&quot;&gt;&amp;nbsp; &amp;nbsp; ID&amp;nbsp; &amp;nbsp; &amp;nbsp; &amp;nbsp;&lt;span style=&quot;text-align: center;&quot;&gt;ReviewDate&lt;/span&gt;&amp;nbsp;&amp;nbsp;&lt;span style=&quot;text-align: center;&quot;&gt;EnvironmentSatisfaction&lt;/span&gt;&amp;nbsp; &amp;nbsp;&amp;nbsp;&lt;/font&gt;&lt;span style=&quot;background-color: initial; text-align: center; font-size: 18px;&quot;&gt;JobSatisfaction&amp;nbsp; &lt;/span&gt;&lt;span style=&quot;background-color: initial; font-size: 18px; text-align: center;&quot;&gt;RelationshipSatisfaction&amp;nbsp;&amp;nbsp;&lt;/span&gt;&lt;span style=&quot;background-color: initial; font-size: 18px; text-align: center;&quot;&gt;WorkLifeBalance&amp;nbsp;&amp;nbsp;&lt;/span&gt;&lt;span style=&quot;background-color: initial; font-size: 18px; text-align: center;&quot;&gt;ManagerRating&amp;nbsp; &amp;nbsp;&lt;/span&gt;&lt;span style=&quot;background-color: initial; font-size: 18px; text-align: center;&quot;&gt;SelfRating&lt;/span&gt;&lt;span style=&quot;background-color: initial; font-size: 18px; text-align: center;&quot;&gt;&amp;nbsp; &amp;nbsp;Emp_ID&lt;/span&gt;&lt;/div&gt;" style="rounded=0;whiteSpace=wrap;html=1;align=left;" parent="1" vertex="1">
          <mxGeometry x="-696" y="1417.68" width="1266" height="40" as="geometry" />
        </mxCell>
        <mxCell id="vKgDMpSiNGCdPXtvVYjp-198" value="" style="endArrow=none;html=1;rounded=0;exitX=0.107;exitY=1.058;exitDx=0;exitDy=0;exitPerimeter=0;" parent="1" edge="1">
          <mxGeometry width="50" height="50" relative="1" as="geometry">
            <mxPoint x="-519" y="1459.68" as="sourcePoint" />
            <mxPoint x="-519" y="1417.68" as="targetPoint" />
          </mxGeometry>
        </mxCell>
        <mxCell id="vKgDMpSiNGCdPXtvVYjp-199" value="" style="endArrow=none;html=1;rounded=0;exitX=0.107;exitY=1.058;exitDx=0;exitDy=0;exitPerimeter=0;" parent="1" edge="1">
          <mxGeometry width="50" height="50" relative="1" as="geometry">
            <mxPoint x="-310" y="1459.68" as="sourcePoint" />
            <mxPoint x="-310" y="1417.68" as="targetPoint" />
          </mxGeometry>
        </mxCell>
        <mxCell id="vKgDMpSiNGCdPXtvVYjp-200" value="" style="endArrow=none;html=1;rounded=0;strokeWidth=3;" parent="1" edge="1">
          <mxGeometry width="50" height="50" relative="1" as="geometry">
            <mxPoint x="-657" y="1447.68" as="sourcePoint" />
            <mxPoint x="-677" y="1447.68" as="targetPoint" />
          </mxGeometry>
        </mxCell>
        <mxCell id="vKgDMpSiNGCdPXtvVYjp-201" value="&lt;span style=&quot;font-family: Cambria, serif; text-wrap: wrap;&quot;&gt;&lt;font style=&quot;font-size: 24px;&quot;&gt;Review&lt;/font&gt;&lt;/span&gt;" style="text;html=1;align=center;verticalAlign=middle;resizable=0;points=[];autosize=1;strokeColor=none;fillColor=none;" parent="1" vertex="1">
          <mxGeometry x="-711" y="1380.68" width="100" height="40" as="geometry" />
        </mxCell>
        <mxCell id="vKgDMpSiNGCdPXtvVYjp-203" value="" style="endArrow=none;html=1;rounded=0;" parent="1" edge="1">
          <mxGeometry width="50" height="50" relative="1" as="geometry">
            <mxPoint x="-172" y="1460" as="sourcePoint" />
            <mxPoint x="-172" y="1419.68" as="targetPoint" />
          </mxGeometry>
        </mxCell>
        <mxCell id="vKgDMpSiNGCdPXtvVYjp-204" value="" style="endArrow=none;html=1;rounded=0;exitX=0.107;exitY=1.058;exitDx=0;exitDy=0;exitPerimeter=0;" parent="1" edge="1">
          <mxGeometry width="50" height="50" relative="1" as="geometry">
            <mxPoint x="-628" y="1459.68" as="sourcePoint" />
            <mxPoint x="-628" y="1417.68" as="targetPoint" />
          </mxGeometry>
        </mxCell>
        <mxCell id="vKgDMpSiNGCdPXtvVYjp-206" value="" style="endArrow=none;html=1;rounded=0;" parent="1" edge="1">
          <mxGeometry width="50" height="50" relative="1" as="geometry">
            <mxPoint x="32" y="1459" as="sourcePoint" />
            <mxPoint x="32" y="1418.68" as="targetPoint" />
          </mxGeometry>
        </mxCell>
        <mxCell id="vKgDMpSiNGCdPXtvVYjp-208" value="" style="endArrow=none;html=1;rounded=0;" parent="1" edge="1">
          <mxGeometry width="50" height="50" relative="1" as="geometry">
            <mxPoint x="179" y="1456" as="sourcePoint" />
            <mxPoint x="179" y="1415.68" as="targetPoint" />
          </mxGeometry>
        </mxCell>
        <mxCell id="vKgDMpSiNGCdPXtvVYjp-209" value="" style="endArrow=none;html=1;rounded=0;" parent="1" edge="1">
          <mxGeometry width="50" height="50" relative="1" as="geometry">
            <mxPoint x="315" y="1460" as="sourcePoint" />
            <mxPoint x="315" y="1419.68" as="targetPoint" />
          </mxGeometry>
        </mxCell>
        <mxCell id="vKgDMpSiNGCdPXtvVYjp-220" value="&lt;font style=&quot;font-size: 18px;&quot;&gt;&amp;nbsp; &amp;nbsp; ID&amp;nbsp; &amp;nbsp; &amp;nbsp; &amp;nbsp;Name&lt;span style=&quot;white-space: pre;&quot;&gt;&#x9;&lt;/span&gt;Manager_Id&lt;/font&gt;" style="rounded=0;whiteSpace=wrap;html=1;align=left;" parent="1" vertex="1">
          <mxGeometry x="-697" y="1537.68" width="437" height="40" as="geometry" />
        </mxCell>
        <mxCell id="vKgDMpSiNGCdPXtvVYjp-221" value="" style="endArrow=none;html=1;rounded=0;exitX=0.107;exitY=1.058;exitDx=0;exitDy=0;exitPerimeter=0;" parent="1" edge="1">
          <mxGeometry width="50" height="50" relative="1" as="geometry">
            <mxPoint x="-551" y="1579.68" as="sourcePoint" />
            <mxPoint x="-551" y="1537.68" as="targetPoint" />
          </mxGeometry>
        </mxCell>
        <mxCell id="vKgDMpSiNGCdPXtvVYjp-223" value="" style="endArrow=none;html=1;rounded=0;strokeWidth=3;" parent="1" edge="1">
          <mxGeometry width="50" height="50" relative="1" as="geometry">
            <mxPoint x="-658" y="1567.68" as="sourcePoint" />
            <mxPoint x="-678" y="1567.68" as="targetPoint" />
          </mxGeometry>
        </mxCell>
        <mxCell id="vKgDMpSiNGCdPXtvVYjp-224" value="&lt;span style=&quot;text-wrap: wrap;&quot;&gt;&lt;font style=&quot;font-size: 24px;&quot;&gt;Department&lt;/font&gt;&lt;/span&gt;" style="text;html=1;align=center;verticalAlign=middle;resizable=0;points=[];autosize=1;strokeColor=none;fillColor=none;" parent="1" vertex="1">
          <mxGeometry x="-734" y="1494.68" width="150" height="40" as="geometry" />
        </mxCell>
        <mxCell id="vKgDMpSiNGCdPXtvVYjp-226" value="" style="endArrow=none;html=1;rounded=0;exitX=0.107;exitY=1.058;exitDx=0;exitDy=0;exitPerimeter=0;" parent="1" edge="1">
          <mxGeometry width="50" height="50" relative="1" as="geometry">
            <mxPoint x="-629" y="1579.68" as="sourcePoint" />
            <mxPoint x="-629" y="1537.68" as="targetPoint" />
          </mxGeometry>
        </mxCell>
        <mxCell id="vKgDMpSiNGCdPXtvVYjp-230" value="&lt;font style=&quot;font-size: 18px;&quot;&gt;&amp;nbsp; &amp;nbsp; ID&amp;nbsp; &amp;nbsp; &amp;nbsp; &amp;nbsp;Rate_Level&lt;/font&gt;" style="rounded=0;whiteSpace=wrap;html=1;align=left;" parent="1" vertex="1">
          <mxGeometry x="-700" y="1761" width="437" height="40" as="geometry" />
        </mxCell>
        <mxCell id="vKgDMpSiNGCdPXtvVYjp-232" value="" style="endArrow=none;html=1;rounded=0;strokeWidth=3;" parent="1" edge="1">
          <mxGeometry width="50" height="50" relative="1" as="geometry">
            <mxPoint x="-661" y="1791" as="sourcePoint" />
            <mxPoint x="-681" y="1791" as="targetPoint" />
          </mxGeometry>
        </mxCell>
        <mxCell id="vKgDMpSiNGCdPXtvVYjp-233" value="&lt;span style=&quot;text-wrap: wrap;&quot;&gt;&lt;font style=&quot;font-size: 24px;&quot;&gt;Rate&lt;/font&gt;&lt;/span&gt;" style="text;html=1;align=center;verticalAlign=middle;resizable=0;points=[];autosize=1;strokeColor=none;fillColor=none;" parent="1" vertex="1">
          <mxGeometry x="-713" y="1724" width="70" height="40" as="geometry" />
        </mxCell>
        <mxCell id="vKgDMpSiNGCdPXtvVYjp-234" value="" style="endArrow=none;html=1;rounded=0;exitX=0.107;exitY=1.058;exitDx=0;exitDy=0;exitPerimeter=0;" parent="1" edge="1">
          <mxGeometry width="50" height="50" relative="1" as="geometry">
            <mxPoint x="-632" y="1803" as="sourcePoint" />
            <mxPoint x="-632" y="1761" as="targetPoint" />
          </mxGeometry>
        </mxCell>
        <mxCell id="vKgDMpSiNGCdPXtvVYjp-235" value="&lt;font style=&quot;font-size: 18px;&quot;&gt;&lt;span style=&quot;white-space: pre;&quot;&gt;&#x9;&lt;/span&gt;ID&amp;nbsp; &amp;nbsp; &amp;nbsp; &amp;nbsp; &amp;nbsp;&lt;/font&gt;&lt;span style=&quot;font-size: 18px;&quot;&gt;SatisfactionLevel&lt;/span&gt;" style="rounded=0;whiteSpace=wrap;html=1;align=left;" parent="1" vertex="1">
          <mxGeometry x="-702" y="1661.68" width="437" height="40" as="geometry" />
        </mxCell>
        <mxCell id="vKgDMpSiNGCdPXtvVYjp-236" value="" style="endArrow=none;html=1;rounded=0;strokeWidth=3;" parent="1" edge="1">
          <mxGeometry width="50" height="50" relative="1" as="geometry">
            <mxPoint x="-642" y="1692" as="sourcePoint" />
            <mxPoint x="-662" y="1692" as="targetPoint" />
          </mxGeometry>
        </mxCell>
        <mxCell id="vKgDMpSiNGCdPXtvVYjp-237" value="&lt;span style=&quot;text-align: left; text-wrap: wrap;&quot;&gt;&lt;font style=&quot;font-size: 24px;&quot;&gt;Satisfaction&lt;/font&gt;&lt;/span&gt;" style="text;html=1;align=center;verticalAlign=middle;resizable=0;points=[];autosize=1;strokeColor=none;fillColor=none;" parent="1" vertex="1">
          <mxGeometry x="-752" y="1616.68" width="150" height="40" as="geometry" />
        </mxCell>
        <mxCell id="vKgDMpSiNGCdPXtvVYjp-238" value="" style="endArrow=none;html=1;rounded=0;exitX=0.107;exitY=1.058;exitDx=0;exitDy=0;exitPerimeter=0;" parent="1" edge="1">
          <mxGeometry width="50" height="50" relative="1" as="geometry">
            <mxPoint x="-607" y="1703.68" as="sourcePoint" />
            <mxPoint x="-607" y="1661.68" as="targetPoint" />
          </mxGeometry>
        </mxCell>
        <mxCell id="vKgDMpSiNGCdPXtvVYjp-239" value="&amp;nbsp; &amp;nbsp;&lt;span style=&quot;font-size: 18px; text-align: center;&quot;&gt;Education&amp;nbsp; &amp;nbsp;&lt;/span&gt;&lt;span style=&quot;font-size: 18px; text-align: center;&quot;&gt;EducationField&lt;span style=&quot;white-space: pre;&quot;&gt;&#x9;&lt;/span&gt;&lt;/span&gt;" style="rounded=0;whiteSpace=wrap;html=1;align=left;" parent="1" vertex="1">
          <mxGeometry x="-705" y="1858.68" width="437" height="40" as="geometry" />
        </mxCell>
        <mxCell id="vKgDMpSiNGCdPXtvVYjp-241" value="&lt;span style=&quot;color: rgb(230, 237, 243); font-family: -apple-system, BlinkMacSystemFont, &amp;quot;Segoe UI&amp;quot;, &amp;quot;Noto Sans&amp;quot;, Helvetica, Arial, sans-serif, &amp;quot;Apple Color Emoji&amp;quot;, &amp;quot;Segoe UI Emoji&amp;quot;; text-align: left; text-wrap: wrap; background-color: rgb(13, 17, 23);&quot;&gt;&lt;font style=&quot;font-size: 24px;&quot;&gt;education&lt;/font&gt;&lt;/span&gt;" style="text;html=1;align=center;verticalAlign=middle;resizable=0;points=[];autosize=1;strokeColor=none;fillColor=none;" parent="1" vertex="1">
          <mxGeometry x="-728" y="1821.68" width="130" height="40" as="geometry" />
        </mxCell>
        <mxCell id="vKgDMpSiNGCdPXtvVYjp-242" value="" style="endArrow=none;html=1;rounded=0;exitX=0.107;exitY=1.058;exitDx=0;exitDy=0;exitPerimeter=0;" parent="1" edge="1">
          <mxGeometry width="50" height="50" relative="1" as="geometry">
            <mxPoint x="-609" y="1900.68" as="sourcePoint" />
            <mxPoint x="-609" y="1858.68" as="targetPoint" />
          </mxGeometry>
        </mxCell>
        <mxCell id="vKgDMpSiNGCdPXtvVYjp-243" value="&lt;span style=&quot;font-size: 18px; text-align: center;&quot;&gt;YearsSinceLastPromotion&lt;span style=&quot;white-space: pre;&quot;&gt;&#x9;&lt;/span&gt;&lt;/span&gt;&lt;span style=&quot;font-size: 18px; text-align: center;&quot;&gt;YearsAtCompany&lt;span style=&quot;white-space: pre;&quot;&gt;&#x9;&lt;/span&gt;&lt;/span&gt;&lt;span style=&quot;font-size: 18px; text-align: center;&quot;&gt;YearsInMostRecentRole&amp;nbsp; &amp;nbsp;&amp;nbsp;&lt;/span&gt;&lt;span style=&quot;font-size: 18px; text-align: center;&quot;&gt;YearsWithCurrManager&amp;nbsp; &amp;nbsp; &amp;nbsp;Emp_Id&lt;/span&gt;" style="rounded=0;whiteSpace=wrap;html=1;align=left;" parent="1" vertex="1">
          <mxGeometry x="-708" y="1952.68" width="908" height="40" as="geometry" />
        </mxCell>
        <mxCell id="vKgDMpSiNGCdPXtvVYjp-244" value="&lt;span style=&quot;color: rgb(230, 237, 243); font-family: -apple-system, BlinkMacSystemFont, &amp;quot;Segoe UI&amp;quot;, &amp;quot;Noto Sans&amp;quot;, Helvetica, Arial, sans-serif, &amp;quot;Apple Color Emoji&amp;quot;, &amp;quot;Segoe UI Emoji&amp;quot;; text-align: left; text-wrap: wrap; background-color: rgb(13, 17, 23);&quot;&gt;&lt;font style=&quot;font-size: 24px;&quot;&gt;History&lt;/font&gt;&lt;/span&gt;" style="text;html=1;align=center;verticalAlign=middle;resizable=0;points=[];autosize=1;strokeColor=none;fillColor=none;" parent="1" vertex="1">
          <mxGeometry x="-729" y="1915.68" width="100" height="40" as="geometry" />
        </mxCell>
        <mxCell id="vKgDMpSiNGCdPXtvVYjp-245" value="" style="endArrow=none;html=1;rounded=0;exitX=0.107;exitY=1.058;exitDx=0;exitDy=0;exitPerimeter=0;" parent="1" edge="1">
          <mxGeometry width="50" height="50" relative="1" as="geometry">
            <mxPoint x="-482" y="1994.68" as="sourcePoint" />
            <mxPoint x="-482" y="1952.68" as="targetPoint" />
          </mxGeometry>
        </mxCell>
        <mxCell id="vKgDMpSiNGCdPXtvVYjp-246" value="" style="endArrow=none;html=1;rounded=0;exitX=0.107;exitY=1.058;exitDx=0;exitDy=0;exitPerimeter=0;" parent="1" edge="1">
          <mxGeometry width="50" height="50" relative="1" as="geometry">
            <mxPoint x="-315" y="1993.68" as="sourcePoint" />
            <mxPoint x="-315" y="1951.68" as="targetPoint" />
          </mxGeometry>
        </mxCell>
        <mxCell id="vKgDMpSiNGCdPXtvVYjp-247" value="" style="endArrow=none;html=1;rounded=0;exitX=0.107;exitY=1.058;exitDx=0;exitDy=0;exitPerimeter=0;" parent="1" edge="1">
          <mxGeometry width="50" height="50" relative="1" as="geometry">
            <mxPoint x="-102" y="1994.68" as="sourcePoint" />
            <mxPoint x="-102" y="1952.68" as="targetPoint" />
          </mxGeometry>
        </mxCell>
        <mxCell id="vKgDMpSiNGCdPXtvVYjp-251" value="" style="endArrow=classic;html=1;rounded=0;exitX=0.887;exitY=0.941;exitDx=0;exitDy=0;exitPerimeter=0;" parent="1" edge="1" source="vKgDMpSiNGCdPXtvVYjp-137">
          <mxGeometry width="50" height="50" relative="1" as="geometry">
            <mxPoint x="520" y="1330" as="sourcePoint" />
            <mxPoint x="-680" y="1560" as="targetPoint" />
            <Array as="points">
              <mxPoint x="460" y="1370" />
              <mxPoint x="-650" y="1370" />
              <mxPoint x="-750" y="1400" />
              <mxPoint x="-750" y="1480" />
              <mxPoint x="-750" y="1560" />
            </Array>
          </mxGeometry>
        </mxCell>
        <mxCell id="vKgDMpSiNGCdPXtvVYjp-252" value="" style="endArrow=classic;html=1;rounded=0;entryX=0.01;entryY=0.925;entryDx=0;entryDy=0;entryPerimeter=0;exitX=0.47;exitY=0.885;exitDx=0;exitDy=0;exitPerimeter=0;" parent="1" source="vKgDMpSiNGCdPXtvVYjp-220" target="vKgDMpSiNGCdPXtvVYjp-137" edge="1">
          <mxGeometry width="50" height="50" relative="1" as="geometry">
            <mxPoint x="308" y="1727" as="sourcePoint" />
            <mxPoint x="185" y="1765" as="targetPoint" />
            <Array as="points">
              <mxPoint x="-510" y="1600" />
              <mxPoint x="-780" y="1600" />
              <mxPoint x="-780" y="1400" />
            </Array>
          </mxGeometry>
        </mxCell>
        <mxCell id="vKgDMpSiNGCdPXtvVYjp-254" value="" style="endArrow=classic;html=1;rounded=0;exitX=0.703;exitY=0.925;exitDx=0;exitDy=0;exitPerimeter=0;entryX=0;entryY=0.25;entryDx=0;entryDy=0;" parent="1" target="vKgDMpSiNGCdPXtvVYjp-137" edge="1">
          <mxGeometry width="50" height="50" relative="1" as="geometry">
            <mxPoint x="161.63" y="1992.68" as="sourcePoint" />
            <mxPoint x="-661.263" y="1311.0000000000005" as="targetPoint" />
            <Array as="points">
              <mxPoint x="41.63" y="2017.68" />
              <mxPoint x="-820.62" y="2031" />
              <mxPoint x="-820.62" y="1381" />
            </Array>
          </mxGeometry>
        </mxCell>
        <mxCell id="vKgDMpSiNGCdPXtvVYjp-256" value="" style="endArrow=classic;html=1;rounded=0;entryX=0.153;entryY=0.125;entryDx=0;entryDy=0;entryPerimeter=0;" parent="1" target="vKgDMpSiNGCdPXtvVYjp-235" edge="1">
          <mxGeometry width="50" height="50" relative="1" as="geometry">
            <mxPoint x="-170" y="1590" as="sourcePoint" />
            <mxPoint x="-553" y="1638" as="targetPoint" />
            <Array as="points">
              <mxPoint x="-220" y="1450" />
              <mxPoint x="-170" y="1590" />
            </Array>
          </mxGeometry>
        </mxCell>
        <mxCell id="vKgDMpSiNGCdPXtvVYjp-257" value="" style="endArrow=classic;html=1;rounded=0;entryX=0.153;entryY=0.125;entryDx=0;entryDy=0;entryPerimeter=0;" parent="1" edge="1">
          <mxGeometry width="50" height="50" relative="1" as="geometry">
            <mxPoint x="-80" y="1453" as="sourcePoint" />
            <mxPoint x="-625" y="1677" as="targetPoint" />
            <Array as="points">
              <mxPoint x="-100" y="1600" />
            </Array>
          </mxGeometry>
        </mxCell>
        <mxCell id="vKgDMpSiNGCdPXtvVYjp-258" value="" style="endArrow=classic;html=1;rounded=0;entryX=0.153;entryY=0.125;entryDx=0;entryDy=0;entryPerimeter=0;" parent="1" edge="1">
          <mxGeometry width="50" height="50" relative="1" as="geometry">
            <mxPoint x="-370" y="1450" as="sourcePoint" />
            <mxPoint x="-660" y="1661.68" as="targetPoint" />
            <Array as="points">
              <mxPoint x="-270" y="1510" />
              <mxPoint x="-210" y="1580" />
            </Array>
          </mxGeometry>
        </mxCell>
        <mxCell id="vKgDMpSiNGCdPXtvVYjp-259" value="" style="endArrow=classic;html=1;rounded=0;entryX=0.153;entryY=0.125;entryDx=0;entryDy=0;entryPerimeter=0;" parent="1" edge="1">
          <mxGeometry width="50" height="50" relative="1" as="geometry">
            <mxPoint x="220" y="1450" as="sourcePoint" />
            <mxPoint x="-666" y="1762" as="targetPoint" />
            <Array as="points">
              <mxPoint x="90" y="1590" />
              <mxPoint x="-230" y="1720" />
            </Array>
          </mxGeometry>
        </mxCell>
        <mxCell id="vKgDMpSiNGCdPXtvVYjp-260" value="" style="endArrow=classic;html=1;rounded=0;entryX=0.153;entryY=0.125;entryDx=0;entryDy=0;entryPerimeter=0;" parent="1" edge="1">
          <mxGeometry width="50" height="50" relative="1" as="geometry">
            <mxPoint x="370" y="1456" as="sourcePoint" />
            <mxPoint x="-656" y="1772" as="targetPoint" />
            <Array as="points">
              <mxPoint x="200" y="1620" />
              <mxPoint x="-210" y="1730" />
            </Array>
          </mxGeometry>
        </mxCell>
        <mxCell id="vKgDMpSiNGCdPXtvVYjp-262" value="" style="endArrow=classic;html=1;rounded=0;" parent="1" edge="1">
          <mxGeometry width="50" height="50" relative="1" as="geometry">
            <mxPoint x="470" y="1430" as="sourcePoint" />
            <mxPoint x="-650" y="1310" as="targetPoint" />
            <Array as="points">
              <mxPoint x="830" y="1360" />
              <mxPoint x="830" y="1260" />
              <mxPoint x="-450" y="1270" />
              <mxPoint x="-570" y="1270" />
            </Array>
          </mxGeometry>
        </mxCell>
        <mxCell id="vKgDMpSiNGCdPXtvVYjp-264" value="" style="endArrow=none;dashed=1;html=1;rounded=0;strokeWidth=3;" parent="1" edge="1">
          <mxGeometry width="50" height="50" relative="1" as="geometry">
            <mxPoint x="418" y="1453.01" as="sourcePoint" />
            <mxPoint x="469" y="1453.33" as="targetPoint" />
            <Array as="points">
              <mxPoint x="480" y="1453" />
            </Array>
          </mxGeometry>
        </mxCell>
        <mxCell id="vKgDMpSiNGCdPXtvVYjp-265" value="" style="endArrow=none;dashed=1;html=1;rounded=0;strokeWidth=3;" parent="1" edge="1">
          <mxGeometry width="50" height="50" relative="1" as="geometry">
            <mxPoint x="-517" y="1571.02" as="sourcePoint" />
            <mxPoint x="-466" y="1571.34" as="targetPoint" />
            <Array as="points">
              <mxPoint x="-455" y="1571.01" />
            </Array>
          </mxGeometry>
        </mxCell>
        <mxCell id="vKgDMpSiNGCdPXtvVYjp-267" value="" style="endArrow=none;dashed=1;html=1;rounded=0;strokeWidth=3;" parent="1" edge="1">
          <mxGeometry width="50" height="50" relative="1" as="geometry">
            <mxPoint x="120" y="1987.69" as="sourcePoint" />
            <mxPoint x="171" y="1988.01" as="targetPoint" />
            <Array as="points">
              <mxPoint x="182" y="1987.68" />
            </Array>
          </mxGeometry>
        </mxCell>
        <mxCell id="vKgDMpSiNGCdPXtvVYjp-268" value="" style="endArrow=none;dashed=1;html=1;rounded=0;strokeWidth=3;" parent="1" edge="1">
          <mxGeometry width="50" height="50" relative="1" as="geometry">
            <mxPoint x="334" y="1450.0100000000002" as="sourcePoint" />
            <mxPoint x="385" y="1450.33" as="targetPoint" />
            <Array as="points">
              <mxPoint x="396" y="1450" />
            </Array>
          </mxGeometry>
        </mxCell>
        <mxCell id="vKgDMpSiNGCdPXtvVYjp-269" value="" style="endArrow=none;dashed=1;html=1;rounded=0;strokeWidth=3;" parent="1" edge="1">
          <mxGeometry width="50" height="50" relative="1" as="geometry">
            <mxPoint x="194" y="1450.0100000000002" as="sourcePoint" />
            <mxPoint x="245" y="1450.33" as="targetPoint" />
            <Array as="points">
              <mxPoint x="300" y="1450" />
              <mxPoint x="256" y="1450" />
            </Array>
          </mxGeometry>
        </mxCell>
        <mxCell id="vKgDMpSiNGCdPXtvVYjp-272" value="" style="endArrow=none;dashed=1;html=1;rounded=0;strokeWidth=3;" parent="1" edge="1">
          <mxGeometry width="50" height="50" relative="1" as="geometry">
            <mxPoint x="-162" y="1450.01" as="sourcePoint" />
            <mxPoint x="-111" y="1450.33" as="targetPoint" />
            <Array as="points">
              <mxPoint x="20" y="1450" />
              <mxPoint x="-100" y="1450" />
            </Array>
          </mxGeometry>
        </mxCell>
        <mxCell id="vKgDMpSiNGCdPXtvVYjp-273" value="" style="endArrow=none;dashed=1;html=1;rounded=0;strokeWidth=3;" parent="1" edge="1">
          <mxGeometry width="50" height="50" relative="1" as="geometry">
            <mxPoint x="-301.25" y="1450.01" as="sourcePoint" />
            <mxPoint x="-250.25" y="1450.33" as="targetPoint" />
            <Array as="points">
              <mxPoint x="-180" y="1450" />
              <mxPoint x="-239.25" y="1450" />
            </Array>
          </mxGeometry>
        </mxCell>
        <mxCell id="vKgDMpSiNGCdPXtvVYjp-274" value="" style="endArrow=none;dashed=1;html=1;rounded=0;strokeWidth=3;" parent="1" edge="1">
          <mxGeometry width="50" height="50" relative="1" as="geometry">
            <mxPoint x="-505.25" y="1450.01" as="sourcePoint" />
            <mxPoint x="-454.25" y="1450.33" as="targetPoint" />
            <Array as="points">
              <mxPoint x="-323.25" y="1450" />
              <mxPoint x="-443.25" y="1450" />
            </Array>
          </mxGeometry>
        </mxCell>
        <mxCell id="sx932JaqrDD8Sjgy2ovx-2" value="&lt;span style=&quot;color: rgb(230, 237, 243); font-family: -apple-system, BlinkMacSystemFont, &amp;quot;Segoe UI&amp;quot;, &amp;quot;Noto Sans&amp;quot;, Helvetica, Arial, sans-serif, &amp;quot;Apple Color Emoji&amp;quot;, &amp;quot;Segoe UI Emoji&amp;quot;; font-size: 18px; text-align: left; background-color: rgb(13, 17, 23);&quot;&gt;education&lt;/span&gt;" style="whiteSpace=wrap;html=1;align=center;strokeColor=default;verticalAlign=middle;fontFamily=Helvetica;fontSize=22;fontColor=default;fillColor=default;" vertex="1" parent="1">
          <mxGeometry x="350" y="480" width="113" height="46" as="geometry" />
        </mxCell>
        <mxCell id="sx932JaqrDD8Sjgy2ovx-4" value="EducationField" style="ellipse;whiteSpace=wrap;html=1;align=center;fontStyle=4;strokeColor=default;verticalAlign=middle;fontFamily=Helvetica;fontSize=18;fontColor=default;fillColor=default;" vertex="1" parent="1">
          <mxGeometry x="461" y="418" width="175" height="40" as="geometry" />
        </mxCell>
        <mxCell id="sx932JaqrDD8Sjgy2ovx-6" value="" style="endArrow=classic;html=1;rounded=0;entryX=0.376;entryY=0.152;entryDx=0;entryDy=0;entryPerimeter=0;" edge="1" parent="1" target="vKgDMpSiNGCdPXtvVYjp-239">
          <mxGeometry width="50" height="50" relative="1" as="geometry">
            <mxPoint x="750" y="1330" as="sourcePoint" />
            <mxPoint x="-646" y="1782" as="targetPoint" />
            <Array as="points">
              <mxPoint x="640" y="1470" />
              <mxPoint x="260" y="1700" />
              <mxPoint y="1810" />
            </Array>
          </mxGeometry>
        </mxCell>
        <mxCell id="sx932JaqrDD8Sjgy2ovx-7" value="" style="shape=link;html=1;rounded=0;fontFamily=Helvetica;fontSize=100;fontColor=default;fontStyle=0;resizable=0;exitX=0;exitY=0.5;exitDx=0;exitDy=0;verticalAlign=middle;width=8.18181818181818;entryX=1;entryY=1;entryDx=0;entryDy=0;" edge="1" parent="1" source="vKgDMpSiNGCdPXtvVYjp-101" target="NUFsKL0PFLLsc1Rbk0hu-1">
          <mxGeometry relative="1" as="geometry">
            <mxPoint x="159.77999999999955" y="400" as="sourcePoint" />
            <mxPoint x="30.0007974434873" y="411.98553530694267" as="targetPoint" />
          </mxGeometry>
        </mxCell>
        <mxCell id="sx932JaqrDD8Sjgy2ovx-8" value="" style="endArrow=none;html=1;rounded=0;fontSize=18;exitX=1;exitY=0.5;exitDx=0;exitDy=0;entryX=0;entryY=0.75;entryDx=0;entryDy=0;" edge="1" parent="1" source="vKgDMpSiNGCdPXtvVYjp-101" target="sx932JaqrDD8Sjgy2ovx-2">
          <mxGeometry relative="1" as="geometry">
            <mxPoint x="43" y="400" as="sourcePoint" />
            <mxPoint x="315" y="394" as="targetPoint" />
          </mxGeometry>
        </mxCell>
        <mxCell id="sx932JaqrDD8Sjgy2ovx-9" value="1" style="resizable=0;html=1;align=right;verticalAlign=bottom;fontSize=26;" connectable="0" vertex="1" parent="sx932JaqrDD8Sjgy2ovx-8">
          <mxGeometry x="1" relative="1" as="geometry">
            <mxPoint x="-100" y="-11" as="offset" />
          </mxGeometry>
        </mxCell>
        <mxCell id="sx932JaqrDD8Sjgy2ovx-10" value="1" style="resizable=0;html=1;align=right;verticalAlign=bottom;fontSize=26;" connectable="0" vertex="1" parent="sx932JaqrDD8Sjgy2ovx-8">
          <mxGeometry x="1" relative="1" as="geometry">
            <mxPoint x="110" y="-18" as="offset" />
          </mxGeometry>
        </mxCell>
        <mxCell id="sx932JaqrDD8Sjgy2ovx-11" value="1" style="resizable=0;html=1;align=right;verticalAlign=bottom;fontSize=26;" connectable="0" vertex="1" parent="sx932JaqrDD8Sjgy2ovx-8">
          <mxGeometry x="1" relative="1" as="geometry">
            <mxPoint x="-213" y="-49" as="offset" />
          </mxGeometry>
        </mxCell>
        <mxCell id="sx932JaqrDD8Sjgy2ovx-13" value="" style="endArrow=none;html=1;rounded=0;" edge="1" parent="1">
          <mxGeometry width="50" height="50" relative="1" as="geometry">
            <mxPoint x="-226" y="1339" as="sourcePoint" />
            <mxPoint x="-226" y="1298.68" as="targetPoint" />
          </mxGeometry>
        </mxCell>
        <mxCell id="sx932JaqrDD8Sjgy2ovx-15" value="" style="endArrow=none;html=1;rounded=0;" edge="1" parent="1">
          <mxGeometry width="50" height="50" relative="1" as="geometry">
            <mxPoint x="-129" y="1340" as="sourcePoint" />
            <mxPoint x="-129" y="1299.68" as="targetPoint" />
          </mxGeometry>
        </mxCell>
        <mxCell id="sx932JaqrDD8Sjgy2ovx-16" value="" style="endArrow=none;html=1;rounded=0;" edge="1" parent="1">
          <mxGeometry width="50" height="50" relative="1" as="geometry">
            <mxPoint x="-43" y="1340" as="sourcePoint" />
            <mxPoint x="-43" y="1299.68" as="targetPoint" />
          </mxGeometry>
        </mxCell>
        <mxCell id="sx932JaqrDD8Sjgy2ovx-17" value="" style="endArrow=none;html=1;rounded=0;" edge="1" parent="1">
          <mxGeometry width="50" height="50" relative="1" as="geometry">
            <mxPoint x="50" y="1341" as="sourcePoint" />
            <mxPoint x="50" y="1300.68" as="targetPoint" />
          </mxGeometry>
        </mxCell>
        <mxCell id="sx932JaqrDD8Sjgy2ovx-18" value="" style="endArrow=none;html=1;rounded=0;" edge="1" parent="1">
          <mxGeometry width="50" height="50" relative="1" as="geometry">
            <mxPoint x="113" y="1339" as="sourcePoint" />
            <mxPoint x="113" y="1298.68" as="targetPoint" />
          </mxGeometry>
        </mxCell>
        <mxCell id="sx932JaqrDD8Sjgy2ovx-19" value="" style="endArrow=none;html=1;rounded=0;" edge="1" parent="1">
          <mxGeometry width="50" height="50" relative="1" as="geometry">
            <mxPoint x="247" y="1339" as="sourcePoint" />
            <mxPoint x="247" y="1298.68" as="targetPoint" />
          </mxGeometry>
        </mxCell>
        <mxCell id="sx932JaqrDD8Sjgy2ovx-20" value="" style="endArrow=none;html=1;rounded=0;" edge="1" parent="1">
          <mxGeometry width="50" height="50" relative="1" as="geometry">
            <mxPoint x="438" y="1340" as="sourcePoint" />
            <mxPoint x="438" y="1299.68" as="targetPoint" />
          </mxGeometry>
        </mxCell>
        <mxCell id="sx932JaqrDD8Sjgy2ovx-21" value="" style="endArrow=none;html=1;rounded=0;" edge="1" parent="1">
          <mxGeometry width="50" height="50" relative="1" as="geometry">
            <mxPoint x="551" y="1338" as="sourcePoint" />
            <mxPoint x="551" y="1297.68" as="targetPoint" />
          </mxGeometry>
        </mxCell>
        <mxCell id="sx932JaqrDD8Sjgy2ovx-22" value="" style="endArrow=none;dashed=1;html=1;rounded=0;strokeWidth=3;" edge="1" parent="1">
          <mxGeometry width="50" height="50" relative="1" as="geometry">
            <mxPoint x="634" y="1332.68" as="sourcePoint" />
            <mxPoint x="685" y="1333" as="targetPoint" />
          </mxGeometry>
        </mxCell>
        <mxCell id="sx932JaqrDD8Sjgy2ovx-23" value="" style="endArrow=none;dashed=1;html=1;rounded=0;strokeWidth=3;" edge="1" parent="1">
          <mxGeometry width="50" height="50" relative="1" as="geometry">
            <mxPoint x="705" y="1330.68" as="sourcePoint" />
            <mxPoint x="819.9999999999995" y="1333.360652680653" as="targetPoint" />
          </mxGeometry>
        </mxCell>
        <mxCell id="sx932JaqrDD8Sjgy2ovx-24" value="" style="endArrow=none;html=1;rounded=0;exitX=0.107;exitY=1.058;exitDx=0;exitDy=0;exitPerimeter=0;" edge="1" parent="1">
          <mxGeometry width="50" height="50" relative="1" as="geometry">
            <mxPoint x="100.25" y="1994.68" as="sourcePoint" />
            <mxPoint x="100.25" y="1952.68" as="targetPoint" />
          </mxGeometry>
        </mxCell>
        <mxCell id="sx932JaqrDD8Sjgy2ovx-25" value="" style="endArrow=none;html=1;rounded=0;" edge="1" parent="1">
          <mxGeometry width="50" height="50" relative="1" as="geometry">
            <mxPoint x="614" y="1338" as="sourcePoint" />
            <mxPoint x="614" y="1297.68" as="targetPoint" />
          </mxGeometry>
        </mxCell>
        <mxCell id="sx932JaqrDD8Sjgy2ovx-26" value="" style="endArrow=none;html=1;rounded=0;" edge="1" parent="1">
          <mxGeometry width="50" height="50" relative="1" as="geometry">
            <mxPoint x="696" y="1341" as="sourcePoint" />
            <mxPoint x="696" y="1300.68" as="targetPoint" />
          </mxGeometry>
        </mxCell>
      </root>
    </mxGraphModel>
  </diagram>
</mxfile>
